<mxfile host="app.diagrams.net" modified="2023-07-04T03:05:58.862Z" agent="Mozilla/5.0 (Windows NT 10.0; Win64; x64) AppleWebKit/537.36 (KHTML, like Gecko) Chrome/114.0.0.0 Safari/537.36" etag="FRZyeNhGJX0d4GxfGI8d" version="21.5.2" type="github">
  <diagram id="ENxEs4GuXWoanbtWAxck" name="第 1 页">
    <mxGraphModel dx="1985" dy="840" grid="1" gridSize="10" guides="1" tooltips="1" connect="1" arrows="1" fold="1" page="1" pageScale="1" pageWidth="4681" pageHeight="3300" math="0" shadow="0">
      <root>
        <mxCell id="0" />
        <mxCell id="1" parent="0" />
        <mxCell id="hWBbgPYYPAye6a4a8nGw-1" value="AchieveTaskService" style="rounded=0;whiteSpace=wrap;html=1;" parent="1" vertex="1">
          <mxGeometry x="230" y="130" width="190" height="40" as="geometry" />
        </mxCell>
        <mxCell id="hWBbgPYYPAye6a4a8nGw-2" value="AchieveTaskRuleCheckFactory" style="rounded=0;whiteSpace=wrap;html=1;" parent="1" vertex="1">
          <mxGeometry x="510" y="130" width="190" height="40" as="geometry" />
        </mxCell>
        <mxCell id="hWBbgPYYPAye6a4a8nGw-4" value="AchieveTaskRuleCheck" style="rounded=0;whiteSpace=wrap;html=1;" parent="1" vertex="1">
          <mxGeometry x="978" y="130" width="190" height="40" as="geometry" />
        </mxCell>
        <mxCell id="hWBbgPYYPAye6a4a8nGw-5" value="// 更新任务状态&lt;br&gt;// 角色Id&lt;br&gt;// 任务规则&lt;br&gt;// 参数&lt;br&gt;public void updateTaskByRule(long roleId, int ruleType, Object... params);&lt;br&gt;&lt;br&gt;&lt;br&gt;// 获取已完成的成就&lt;br&gt;&lt;br&gt;// 领取接口" style="rounded=0;whiteSpace=wrap;html=1;align=left;verticalAlign=top;" parent="1" vertex="1">
          <mxGeometry x="180" y="210" width="250" height="250" as="geometry" />
        </mxCell>
        <mxCell id="hWBbgPYYPAye6a4a8nGw-6" value="&lt;div&gt;// 判定是否完成成就任务&lt;/div&gt;&lt;div&gt;// 玩家db对象&lt;/div&gt;&lt;div&gt;&lt;br&gt;&lt;/div&gt;&lt;div&gt;public boolean checkComplete(long roleId, RoleAchieveTask task,&amp;nbsp; AchieveTaskTemplate template,&lt;span style=&quot;background-color: initial;&quot;&gt;Object... params)&lt;/span&gt;&lt;/div&gt;" style="rounded=0;whiteSpace=wrap;html=1;align=left;verticalAlign=top;" parent="1" vertex="1">
          <mxGeometry x="500" y="210" width="270" height="260" as="geometry" />
        </mxCell>
        <mxCell id="hWBbgPYYPAye6a4a8nGw-12" value="RoleAchieveTask " style="swimlane;" parent="1" vertex="1">
          <mxGeometry x="170" y="490" width="310" height="240" as="geometry" />
        </mxCell>
        <mxCell id="hWBbgPYYPAye6a4a8nGw-14" value="&lt;div&gt;&amp;nbsp; &amp;nbsp; // 唯一id&lt;/div&gt;&lt;div&gt;&amp;nbsp; &amp;nbsp; private long id;&lt;/div&gt;&lt;div&gt;&amp;nbsp; &amp;nbsp; // 玩家id&lt;/div&gt;&lt;div&gt;&amp;nbsp; &amp;nbsp; private long roleId;&lt;/div&gt;&lt;div&gt;&amp;nbsp; &amp;nbsp; // 任务表id&lt;/div&gt;&lt;div&gt;&amp;nbsp; &amp;nbsp; private int tplId;&lt;/div&gt;&lt;div&gt;&amp;nbsp; &amp;nbsp; // 任务进度&lt;/div&gt;&lt;div&gt;&amp;nbsp; &amp;nbsp; private int complete;&lt;/div&gt;&lt;div&gt;&amp;nbsp; &amp;nbsp; // 状态 0-未完成状态，1-完成状态，2-已领取奖励状态&lt;/div&gt;&lt;div&gt;&amp;nbsp; &amp;nbsp; private int status;&lt;/div&gt;&lt;div&gt;&amp;nbsp; &amp;nbsp; // 创建时间&lt;/div&gt;&lt;div&gt;&amp;nbsp; &amp;nbsp; private long createTime;&lt;/div&gt;&lt;div&gt;&amp;nbsp; &amp;nbsp; // 修改时间&lt;/div&gt;&lt;div&gt;&amp;nbsp; &amp;nbsp; private long modifyTime;&lt;/div&gt;" style="text;html=1;align=left;verticalAlign=top;resizable=0;points=[];autosize=1;strokeColor=none;fillColor=none;" parent="hWBbgPYYPAye6a4a8nGw-12" vertex="1">
          <mxGeometry x="-10" y="30" width="320" height="210" as="geometry" />
        </mxCell>
        <mxCell id="hWBbgPYYPAye6a4a8nGw-15" value="// 规则Id&lt;br&gt;int ruleType()&lt;br&gt;&lt;br&gt;&lt;br&gt;// 判定玩家是否可以完成该任务&lt;br&gt;// 玩家Id&lt;br&gt;// 当前完成次数&lt;br&gt;// 规则参数&lt;br&gt;// 参数列表&lt;br&gt;int check(long roleId, int curComplete, int ruleParams, Object... params);" style="whiteSpace=wrap;html=1;align=left;verticalAlign=top;" parent="1" vertex="1">
          <mxGeometry x="930" y="210" width="330" height="280" as="geometry" />
        </mxCell>
        <mxCell id="E-_-Di7X2A5vuP30yNUE-9" value="" style="group" parent="1" vertex="1" connectable="0">
          <mxGeometry x="900" y="640" width="310" height="180" as="geometry" />
        </mxCell>
        <mxCell id="E-_-Di7X2A5vuP30yNUE-8" value="" style="rounded=1;whiteSpace=wrap;html=1;strokeWidth=2;fillWeight=4;hachureGap=8;hachureAngle=45;fillColor=#fff2cc;sketch=1;strokeColor=#d6b656;" parent="E-_-Di7X2A5vuP30yNUE-9" vertex="1">
          <mxGeometry width="310" height="180" as="geometry" />
        </mxCell>
        <mxCell id="E-_-Di7X2A5vuP30yNUE-6" value="AchieveTaskRuleCheckFactory" style="text;html=1;strokeColor=none;fillColor=none;align=center;verticalAlign=middle;whiteSpace=wrap;rounded=0;" parent="E-_-Di7X2A5vuP30yNUE-9" vertex="1">
          <mxGeometry x="70" width="190" height="30" as="geometry" />
        </mxCell>
        <mxCell id="E-_-Di7X2A5vuP30yNUE-15" value="List&amp;lt;AchieveTaskRuleCheck&amp;gt;" style="rounded=0;whiteSpace=wrap;html=1;strokeColor=#b85450;fillColor=#f8cecc;" parent="E-_-Di7X2A5vuP30yNUE-9" vertex="1">
          <mxGeometry x="51" y="50" width="208" height="40" as="geometry" />
        </mxCell>
        <mxCell id="E-_-Di7X2A5vuP30yNUE-20" value="更新玩家成就任务进度" style="rounded=1;whiteSpace=wrap;html=1;strokeWidth=2;fillWeight=4;hachureGap=8;hachureAngle=45;fillColor=#dae8fc;sketch=1;strokeColor=#6c8ebf;" parent="E-_-Di7X2A5vuP30yNUE-9" vertex="1">
          <mxGeometry x="80" y="130" width="140" height="30" as="geometry" />
        </mxCell>
        <mxCell id="E-_-Di7X2A5vuP30yNUE-22" value="维护对象" style="text;html=1;align=center;verticalAlign=middle;resizable=0;points=[];autosize=1;strokeColor=none;fillColor=none;" parent="E-_-Di7X2A5vuP30yNUE-9" vertex="1">
          <mxGeometry x="-10" y="55" width="70" height="30" as="geometry" />
        </mxCell>
        <mxCell id="E-_-Di7X2A5vuP30yNUE-23" value="核心功能" style="text;html=1;align=center;verticalAlign=middle;resizable=0;points=[];autosize=1;strokeColor=none;fillColor=none;" parent="E-_-Di7X2A5vuP30yNUE-9" vertex="1">
          <mxGeometry x="-10" y="130" width="70" height="30" as="geometry" />
        </mxCell>
        <mxCell id="E-_-Di7X2A5vuP30yNUE-17" value="" style="endArrow=classic;html=1;rounded=0;entryX=1;entryY=0.5;entryDx=0;entryDy=0;exitX=0;exitY=0.25;exitDx=0;exitDy=0;" parent="1" source="E-_-Di7X2A5vuP30yNUE-10" target="E-_-Di7X2A5vuP30yNUE-15" edge="1">
          <mxGeometry width="50" height="50" relative="1" as="geometry">
            <mxPoint x="1240" y="650" as="sourcePoint" />
            <mxPoint x="1290" y="600" as="targetPoint" />
          </mxGeometry>
        </mxCell>
        <mxCell id="E-_-Di7X2A5vuP30yNUE-19" value="" style="group" parent="1" vertex="1" connectable="0">
          <mxGeometry x="1280" y="655" width="220" height="240" as="geometry" />
        </mxCell>
        <mxCell id="E-_-Di7X2A5vuP30yNUE-10" value="" style="rounded=1;whiteSpace=wrap;html=1;strokeWidth=2;fillWeight=4;hachureGap=8;hachureAngle=45;fillColor=#d5e8d4;sketch=1;strokeColor=#82b366;" parent="E-_-Di7X2A5vuP30yNUE-19" vertex="1">
          <mxGeometry width="220" height="240" as="geometry" />
        </mxCell>
        <mxCell id="E-_-Di7X2A5vuP30yNUE-11" value="AchieveTaskRuleCheck" style="text;html=1;strokeColor=none;fillColor=none;align=center;verticalAlign=middle;whiteSpace=wrap;rounded=0;" parent="E-_-Di7X2A5vuP30yNUE-19" vertex="1">
          <mxGeometry x="20" y="10" width="180" height="30" as="geometry" />
        </mxCell>
        <mxCell id="E-_-Di7X2A5vuP30yNUE-12" value="AchieveTaskRuleCheck1" style="rounded=1;whiteSpace=wrap;html=1;strokeWidth=2;fillWeight=4;hachureGap=8;hachureAngle=45;fillColor=none;sketch=1;strokeColor=#006666;" parent="E-_-Di7X2A5vuP30yNUE-19" vertex="1">
          <mxGeometry x="27.5" y="70" width="165" height="40" as="geometry" />
        </mxCell>
        <mxCell id="E-_-Di7X2A5vuP30yNUE-13" value="AchieveTaskRuleCheck2" style="rounded=1;whiteSpace=wrap;html=1;strokeWidth=2;fillWeight=4;hachureGap=8;hachureAngle=45;fillColor=none;sketch=1;strokeColor=#006666;" parent="E-_-Di7X2A5vuP30yNUE-19" vertex="1">
          <mxGeometry x="27.5" y="130" width="165" height="40" as="geometry" />
        </mxCell>
        <mxCell id="E-_-Di7X2A5vuP30yNUE-14" value="AchieveTaskRuleCheck3" style="rounded=1;whiteSpace=wrap;html=1;strokeWidth=2;fillWeight=4;hachureGap=8;hachureAngle=45;fillColor=none;sketch=1;strokeColor=#006666;" parent="E-_-Di7X2A5vuP30yNUE-19" vertex="1">
          <mxGeometry x="27.5" y="190" width="165" height="40" as="geometry" />
        </mxCell>
        <mxCell id="E-_-Di7X2A5vuP30yNUE-24" value="" style="rounded=1;whiteSpace=wrap;html=1;strokeWidth=2;fillWeight=4;hachureGap=8;hachureAngle=45;fillColor=#ffe6cc;sketch=1;strokeColor=#d79b00;" parent="1" vertex="1">
          <mxGeometry x="540" y="690" width="250" height="190" as="geometry" />
        </mxCell>
        <mxCell id="E-_-Di7X2A5vuP30yNUE-25" value="&lt;span style=&quot;&quot;&gt;AcieveTaskService&lt;/span&gt;" style="text;html=1;align=center;verticalAlign=middle;resizable=0;points=[];autosize=1;strokeColor=none;fillColor=none;" parent="1" vertex="1">
          <mxGeometry x="600" y="695" width="120" height="30" as="geometry" />
        </mxCell>
        <mxCell id="E-_-Di7X2A5vuP30yNUE-27" value="获取成就任务进度" style="rounded=1;whiteSpace=wrap;html=1;strokeWidth=2;fillWeight=4;hachureGap=8;hachureAngle=45;fillColor=#dae8fc;sketch=1;strokeColor=#6c8ebf;" parent="1" vertex="1">
          <mxGeometry x="590" y="790" width="140" height="30" as="geometry" />
        </mxCell>
        <mxCell id="E-_-Di7X2A5vuP30yNUE-29" style="rounded=0;orthogonalLoop=1;jettySize=auto;html=1;exitX=1;exitY=0.5;exitDx=0;exitDy=0;entryX=0;entryY=0.5;entryDx=0;entryDy=0;" parent="1" source="E-_-Di7X2A5vuP30yNUE-26" target="E-_-Di7X2A5vuP30yNUE-8" edge="1">
          <mxGeometry relative="1" as="geometry" />
        </mxCell>
        <mxCell id="E-_-Di7X2A5vuP30yNUE-26" value="更新成就任务进度" style="rounded=1;whiteSpace=wrap;html=1;strokeWidth=2;fillWeight=4;hachureGap=8;hachureAngle=45;fillColor=#dae8fc;sketch=1;strokeColor=#6c8ebf;" parent="1" vertex="1">
          <mxGeometry x="590" y="740" width="140" height="30" as="geometry" />
        </mxCell>
        <mxCell id="E-_-Di7X2A5vuP30yNUE-28" value="领取成就奖励" style="rounded=1;whiteSpace=wrap;html=1;strokeWidth=2;fillWeight=4;hachureGap=8;hachureAngle=45;fillColor=#dae8fc;sketch=1;strokeColor=#6c8ebf;" parent="1" vertex="1">
          <mxGeometry x="590" y="840" width="140" height="30" as="geometry" />
        </mxCell>
        <mxCell id="E-_-Di7X2A5vuP30yNUE-63" style="edgeStyle=orthogonalEdgeStyle;rounded=0;orthogonalLoop=1;jettySize=auto;html=1;exitX=0.5;exitY=1;exitDx=0;exitDy=0;" parent="1" source="E-_-Di7X2A5vuP30yNUE-31" target="E-_-Di7X2A5vuP30yNUE-32" edge="1">
          <mxGeometry relative="1" as="geometry" />
        </mxCell>
        <mxCell id="E-_-Di7X2A5vuP30yNUE-31" value="与好友同玩" style="rounded=0;whiteSpace=wrap;html=1;strokeColor=#006666;fillColor=none;" parent="1" vertex="1">
          <mxGeometry x="125" y="807" width="120" height="40" as="geometry" />
        </mxCell>
        <mxCell id="E-_-Di7X2A5vuP30yNUE-64" style="edgeStyle=orthogonalEdgeStyle;rounded=0;orthogonalLoop=1;jettySize=auto;html=1;exitX=0.5;exitY=1;exitDx=0;exitDy=0;entryX=0.5;entryY=0;entryDx=0;entryDy=0;" parent="1" source="E-_-Di7X2A5vuP30yNUE-32" target="E-_-Di7X2A5vuP30yNUE-33" edge="1">
          <mxGeometry relative="1" as="geometry" />
        </mxCell>
        <mxCell id="E-_-Di7X2A5vuP30yNUE-32" value="触发同玩成就任务" style="rounded=0;whiteSpace=wrap;html=1;strokeColor=#006666;fillColor=none;" parent="1" vertex="1">
          <mxGeometry x="125" y="870" width="120" height="40" as="geometry" />
        </mxCell>
        <mxCell id="E-_-Di7X2A5vuP30yNUE-65" style="edgeStyle=orthogonalEdgeStyle;rounded=0;orthogonalLoop=1;jettySize=auto;html=1;exitX=0.5;exitY=1;exitDx=0;exitDy=0;" parent="1" source="E-_-Di7X2A5vuP30yNUE-33" target="E-_-Di7X2A5vuP30yNUE-34" edge="1">
          <mxGeometry relative="1" as="geometry" />
        </mxCell>
        <mxCell id="E-_-Di7X2A5vuP30yNUE-33" value="从成就配置表中获取含有该类型的成就任务" style="rounded=0;whiteSpace=wrap;html=1;strokeColor=#006666;fillColor=none;" parent="1" vertex="1">
          <mxGeometry x="120" y="930" width="130" height="50" as="geometry" />
        </mxCell>
        <mxCell id="E-_-Di7X2A5vuP30yNUE-60" style="edgeStyle=orthogonalEdgeStyle;rounded=0;orthogonalLoop=1;jettySize=auto;html=1;exitX=0.5;exitY=1;exitDx=0;exitDy=0;" parent="1" source="E-_-Di7X2A5vuP30yNUE-34" target="E-_-Di7X2A5vuP30yNUE-36" edge="1">
          <mxGeometry relative="1" as="geometry" />
        </mxCell>
        <mxCell id="E-_-Di7X2A5vuP30yNUE-34" value="获取玩家已包含该规则的成就entity" style="rounded=0;whiteSpace=wrap;html=1;strokeColor=#006666;fillColor=none;" parent="1" vertex="1">
          <mxGeometry x="120" y="1000" width="130" height="50" as="geometry" />
        </mxCell>
        <mxCell id="E-_-Di7X2A5vuP30yNUE-42" style="edgeStyle=orthogonalEdgeStyle;rounded=0;orthogonalLoop=1;jettySize=auto;html=1;exitX=0.5;exitY=1;exitDx=0;exitDy=0;entryX=1;entryY=0.5;entryDx=0;entryDy=0;" parent="1" source="E-_-Di7X2A5vuP30yNUE-35" target="E-_-Di7X2A5vuP30yNUE-40" edge="1">
          <mxGeometry relative="1" as="geometry" />
        </mxCell>
        <mxCell id="E-_-Di7X2A5vuP30yNUE-35" value="新建entity" style="rounded=0;whiteSpace=wrap;html=1;" parent="1" vertex="1">
          <mxGeometry x="330" y="1095" width="135" height="40" as="geometry" />
        </mxCell>
        <mxCell id="E-_-Di7X2A5vuP30yNUE-38" style="edgeStyle=none;rounded=0;orthogonalLoop=1;jettySize=auto;html=1;exitX=1;exitY=0.5;exitDx=0;exitDy=0;entryX=0;entryY=0.5;entryDx=0;entryDy=0;" parent="1" source="E-_-Di7X2A5vuP30yNUE-36" target="E-_-Di7X2A5vuP30yNUE-35" edge="1">
          <mxGeometry relative="1" as="geometry" />
        </mxCell>
        <mxCell id="E-_-Di7X2A5vuP30yNUE-41" style="edgeStyle=none;rounded=0;orthogonalLoop=1;jettySize=auto;html=1;exitX=0.5;exitY=1;exitDx=0;exitDy=0;entryX=0.5;entryY=0;entryDx=0;entryDy=0;" parent="1" source="E-_-Di7X2A5vuP30yNUE-36" target="E-_-Di7X2A5vuP30yNUE-40" edge="1">
          <mxGeometry relative="1" as="geometry" />
        </mxCell>
        <mxCell id="E-_-Di7X2A5vuP30yNUE-36" value="上述配置中的成就任务&lt;br&gt;有对应的玩家成就entity" style="rhombus;whiteSpace=wrap;html=1;" parent="1" vertex="1">
          <mxGeometry x="100" y="1080" width="170" height="70" as="geometry" />
        </mxCell>
        <mxCell id="E-_-Di7X2A5vuP30yNUE-39" value="没有" style="text;html=1;align=center;verticalAlign=middle;resizable=0;points=[];autosize=1;strokeColor=none;fillColor=none;" parent="1" vertex="1">
          <mxGeometry x="275" y="1080" width="50" height="30" as="geometry" />
        </mxCell>
        <mxCell id="E-_-Di7X2A5vuP30yNUE-48" style="edgeStyle=orthogonalEdgeStyle;rounded=0;orthogonalLoop=1;jettySize=auto;html=1;exitX=0.5;exitY=1;exitDx=0;exitDy=0;entryX=0.5;entryY=0;entryDx=0;entryDy=0;" parent="1" source="E-_-Di7X2A5vuP30yNUE-40" target="E-_-Di7X2A5vuP30yNUE-45" edge="1">
          <mxGeometry relative="1" as="geometry" />
        </mxCell>
        <mxCell id="E-_-Di7X2A5vuP30yNUE-61" style="edgeStyle=orthogonalEdgeStyle;rounded=0;orthogonalLoop=1;jettySize=auto;html=1;exitX=0;exitY=0.5;exitDx=0;exitDy=0;entryX=0;entryY=0.5;entryDx=0;entryDy=0;" parent="1" source="E-_-Di7X2A5vuP30yNUE-40" target="E-_-Di7X2A5vuP30yNUE-59" edge="1">
          <mxGeometry relative="1" as="geometry">
            <Array as="points">
              <mxPoint x="80" y="1200" />
              <mxPoint x="80" y="1560" />
            </Array>
          </mxGeometry>
        </mxCell>
        <mxCell id="E-_-Di7X2A5vuP30yNUE-40" value="循环每个entity" style="rounded=0;whiteSpace=wrap;html=1;" parent="1" vertex="1">
          <mxGeometry x="125" y="1180" width="120" height="40" as="geometry" />
        </mxCell>
        <mxCell id="E-_-Di7X2A5vuP30yNUE-46" style="edgeStyle=orthogonalEdgeStyle;rounded=0;orthogonalLoop=1;jettySize=auto;html=1;exitX=1;exitY=0.5;exitDx=0;exitDy=0;entryX=1;entryY=0.5;entryDx=0;entryDy=0;" parent="1" source="E-_-Di7X2A5vuP30yNUE-45" target="E-_-Di7X2A5vuP30yNUE-40" edge="1">
          <mxGeometry relative="1" as="geometry">
            <Array as="points">
              <mxPoint x="270" y="1275" />
              <mxPoint x="270" y="1200" />
            </Array>
          </mxGeometry>
        </mxCell>
        <mxCell id="E-_-Di7X2A5vuP30yNUE-49" style="edgeStyle=orthogonalEdgeStyle;rounded=0;orthogonalLoop=1;jettySize=auto;html=1;exitX=0.5;exitY=1;exitDx=0;exitDy=0;" parent="1" source="E-_-Di7X2A5vuP30yNUE-45" edge="1">
          <mxGeometry relative="1" as="geometry">
            <mxPoint x="185" y="1340" as="targetPoint" />
          </mxGeometry>
        </mxCell>
        <mxCell id="E-_-Di7X2A5vuP30yNUE-45" value="任务已完成" style="rhombus;whiteSpace=wrap;html=1;" parent="1" vertex="1">
          <mxGeometry x="135" y="1250" width="100" height="50" as="geometry" />
        </mxCell>
        <mxCell id="E-_-Di7X2A5vuP30yNUE-47" value="是" style="text;html=1;align=center;verticalAlign=middle;resizable=0;points=[];autosize=1;strokeColor=none;fillColor=none;" parent="1" vertex="1">
          <mxGeometry x="230" y="1250" width="40" height="30" as="geometry" />
        </mxCell>
        <mxCell id="E-_-Di7X2A5vuP30yNUE-53" style="edgeStyle=orthogonalEdgeStyle;rounded=0;orthogonalLoop=1;jettySize=auto;html=1;exitX=0.5;exitY=1;exitDx=0;exitDy=0;entryX=0.5;entryY=0;entryDx=0;entryDy=0;" parent="1" source="E-_-Di7X2A5vuP30yNUE-50" target="E-_-Di7X2A5vuP30yNUE-52" edge="1">
          <mxGeometry relative="1" as="geometry" />
        </mxCell>
        <mxCell id="E-_-Di7X2A5vuP30yNUE-50" value="交给AchieveTaskRuleCheckFactory&lt;br&gt;检查任务是否完成" style="rounded=0;whiteSpace=wrap;html=1;" parent="1" vertex="1">
          <mxGeometry x="95" y="1340" width="180" height="50" as="geometry" />
        </mxCell>
        <mxCell id="E-_-Di7X2A5vuP30yNUE-55" style="edgeStyle=orthogonalEdgeStyle;rounded=0;orthogonalLoop=1;jettySize=auto;html=1;exitX=0.5;exitY=1;exitDx=0;exitDy=0;" parent="1" source="E-_-Di7X2A5vuP30yNUE-52" target="E-_-Di7X2A5vuP30yNUE-54" edge="1">
          <mxGeometry relative="1" as="geometry" />
        </mxCell>
        <mxCell id="E-_-Di7X2A5vuP30yNUE-56" style="edgeStyle=orthogonalEdgeStyle;rounded=0;orthogonalLoop=1;jettySize=auto;html=1;exitX=1;exitY=0.5;exitDx=0;exitDy=0;entryX=1;entryY=0.5;entryDx=0;entryDy=0;" parent="1" source="E-_-Di7X2A5vuP30yNUE-52" target="E-_-Di7X2A5vuP30yNUE-40" edge="1">
          <mxGeometry relative="1" as="geometry">
            <Array as="points">
              <mxPoint x="290" y="1435" />
              <mxPoint x="290" y="1200" />
            </Array>
          </mxGeometry>
        </mxCell>
        <mxCell id="E-_-Di7X2A5vuP30yNUE-52" value="任务已完成" style="rhombus;whiteSpace=wrap;html=1;" parent="1" vertex="1">
          <mxGeometry x="135" y="1410" width="100" height="50" as="geometry" />
        </mxCell>
        <mxCell id="E-_-Di7X2A5vuP30yNUE-62" style="edgeStyle=orthogonalEdgeStyle;rounded=0;orthogonalLoop=1;jettySize=auto;html=1;exitX=1;exitY=0.5;exitDx=0;exitDy=0;entryX=1;entryY=0.5;entryDx=0;entryDy=0;" parent="1" source="E-_-Di7X2A5vuP30yNUE-54" target="E-_-Di7X2A5vuP30yNUE-40" edge="1">
          <mxGeometry relative="1" as="geometry">
            <Array as="points">
              <mxPoint x="310" y="1500" />
              <mxPoint x="310" y="1200" />
            </Array>
          </mxGeometry>
        </mxCell>
        <mxCell id="E-_-Di7X2A5vuP30yNUE-54" value="通知客户端" style="rounded=0;whiteSpace=wrap;html=1;" parent="1" vertex="1">
          <mxGeometry x="135" y="1480" width="100" height="40" as="geometry" />
        </mxCell>
        <mxCell id="E-_-Di7X2A5vuP30yNUE-57" value="否" style="text;html=1;align=center;verticalAlign=middle;resizable=0;points=[];autosize=1;strokeColor=none;fillColor=none;" parent="1" vertex="1">
          <mxGeometry x="235" y="1410" width="40" height="30" as="geometry" />
        </mxCell>
        <mxCell id="E-_-Di7X2A5vuP30yNUE-59" value="结束" style="ellipse;whiteSpace=wrap;html=1;" parent="1" vertex="1">
          <mxGeometry x="130" y="1540" width="110" height="40" as="geometry" />
        </mxCell>
        <mxCell id="E-_-Di7X2A5vuP30yNUE-66" value="AchieveTaskRuleCheckFactory" style="rounded=0;whiteSpace=wrap;html=1;" parent="1" vertex="1">
          <mxGeometry x="650" y="995" width="260" height="35" as="geometry" />
        </mxCell>
        <mxCell id="E-_-Di7X2A5vuP30yNUE-76" style="edgeStyle=orthogonalEdgeStyle;rounded=0;orthogonalLoop=1;jettySize=auto;html=1;exitX=0.5;exitY=1;exitDx=0;exitDy=0;" parent="1" source="E-_-Di7X2A5vuP30yNUE-67" target="E-_-Di7X2A5vuP30yNUE-68" edge="1">
          <mxGeometry relative="1" as="geometry" />
        </mxCell>
        <mxCell id="E-_-Di7X2A5vuP30yNUE-67" value="获取任务配置规则" style="rounded=0;whiteSpace=wrap;html=1;" parent="1" vertex="1">
          <mxGeometry x="720" y="1060" width="120" height="40" as="geometry" />
        </mxCell>
        <mxCell id="E-_-Di7X2A5vuP30yNUE-77" style="edgeStyle=orthogonalEdgeStyle;rounded=0;orthogonalLoop=1;jettySize=auto;html=1;exitX=0.5;exitY=1;exitDx=0;exitDy=0;" parent="1" source="E-_-Di7X2A5vuP30yNUE-68" target="E-_-Di7X2A5vuP30yNUE-69" edge="1">
          <mxGeometry relative="1" as="geometry" />
        </mxCell>
        <mxCell id="E-_-Di7X2A5vuP30yNUE-68" value="循环规则" style="rounded=0;whiteSpace=wrap;html=1;" parent="1" vertex="1">
          <mxGeometry x="720" y="1120" width="120" height="40" as="geometry" />
        </mxCell>
        <mxCell id="E-_-Di7X2A5vuP30yNUE-78" style="edgeStyle=orthogonalEdgeStyle;rounded=0;orthogonalLoop=1;jettySize=auto;html=1;exitX=0.5;exitY=1;exitDx=0;exitDy=0;" parent="1" source="E-_-Di7X2A5vuP30yNUE-69" target="E-_-Di7X2A5vuP30yNUE-70" edge="1">
          <mxGeometry relative="1" as="geometry" />
        </mxCell>
        <mxCell id="E-_-Di7X2A5vuP30yNUE-69" value="获取规则对应的&lt;br&gt;AchieveTaskRuleCheck" style="rounded=0;whiteSpace=wrap;html=1;" parent="1" vertex="1">
          <mxGeometry x="715" y="1180" width="130" height="50" as="geometry" />
        </mxCell>
        <mxCell id="E-_-Di7X2A5vuP30yNUE-79" style="edgeStyle=orthogonalEdgeStyle;rounded=0;orthogonalLoop=1;jettySize=auto;html=1;exitX=0.5;exitY=1;exitDx=0;exitDy=0;" parent="1" source="E-_-Di7X2A5vuP30yNUE-70" target="E-_-Di7X2A5vuP30yNUE-74" edge="1">
          <mxGeometry relative="1" as="geometry" />
        </mxCell>
        <mxCell id="E-_-Di7X2A5vuP30yNUE-70" value="校验器校验&lt;br&gt;任务完成情况" style="rounded=0;whiteSpace=wrap;html=1;" parent="1" vertex="1">
          <mxGeometry x="720" y="1250" width="120" height="50" as="geometry" />
        </mxCell>
        <mxCell id="E-_-Di7X2A5vuP30yNUE-71" value="成就任务服务类" style="text;html=1;align=center;verticalAlign=middle;resizable=0;points=[];autosize=1;strokeColor=none;fillColor=none;" parent="1" vertex="1">
          <mxGeometry x="605" y="895" width="110" height="30" as="geometry" />
        </mxCell>
        <mxCell id="E-_-Di7X2A5vuP30yNUE-72" value="成就任务校验工厂" style="text;html=1;align=center;verticalAlign=middle;resizable=0;points=[];autosize=1;strokeColor=none;fillColor=none;" parent="1" vertex="1">
          <mxGeometry x="995" y="895" width="120" height="30" as="geometry" />
        </mxCell>
        <mxCell id="E-_-Di7X2A5vuP30yNUE-73" value="成就任务规则校验器" style="text;html=1;align=center;verticalAlign=middle;resizable=0;points=[];autosize=1;strokeColor=none;fillColor=none;" parent="1" vertex="1">
          <mxGeometry x="1320" y="900" width="130" height="30" as="geometry" />
        </mxCell>
        <mxCell id="E-_-Di7X2A5vuP30yNUE-80" style="edgeStyle=orthogonalEdgeStyle;rounded=0;orthogonalLoop=1;jettySize=auto;html=1;exitX=0.5;exitY=1;exitDx=0;exitDy=0;entryX=0.5;entryY=0;entryDx=0;entryDy=0;" parent="1" source="E-_-Di7X2A5vuP30yNUE-74" target="E-_-Di7X2A5vuP30yNUE-75" edge="1">
          <mxGeometry relative="1" as="geometry" />
        </mxCell>
        <mxCell id="E-_-Di7X2A5vuP30yNUE-74" value="更新任务状态" style="rounded=0;whiteSpace=wrap;html=1;" parent="1" vertex="1">
          <mxGeometry x="720" y="1320" width="120" height="50" as="geometry" />
        </mxCell>
        <mxCell id="E-_-Di7X2A5vuP30yNUE-75" value="返回任务进度&lt;br&gt;是否变化" style="rounded=0;whiteSpace=wrap;html=1;" parent="1" vertex="1">
          <mxGeometry x="720" y="1390" width="120" height="50" as="geometry" />
        </mxCell>
        <mxCell id="qh5if6X5rxDFb2PUgvWU-7" style="edgeStyle=orthogonalEdgeStyle;rounded=0;orthogonalLoop=1;jettySize=auto;html=1;exitX=0.5;exitY=1;exitDx=0;exitDy=0;" parent="1" source="qh5if6X5rxDFb2PUgvWU-2" target="qh5if6X5rxDFb2PUgvWU-3" edge="1">
          <mxGeometry relative="1" as="geometry" />
        </mxCell>
        <mxCell id="qh5if6X5rxDFb2PUgvWU-2" value="收到结算协议" style="whiteSpace=wrap;html=1;" parent="1" vertex="1">
          <mxGeometry x="1570" y="160" width="140" height="40" as="geometry" />
        </mxCell>
        <mxCell id="qh5if6X5rxDFb2PUgvWU-8" style="edgeStyle=orthogonalEdgeStyle;rounded=0;orthogonalLoop=1;jettySize=auto;html=1;exitX=0.5;exitY=1;exitDx=0;exitDy=0;" parent="1" source="qh5if6X5rxDFb2PUgvWU-3" target="qh5if6X5rxDFb2PUgvWU-4" edge="1">
          <mxGeometry relative="1" as="geometry" />
        </mxCell>
        <mxCell id="qh5if6X5rxDFb2PUgvWU-3" value="历史战绩统计" style="whiteSpace=wrap;html=1;" parent="1" vertex="1">
          <mxGeometry x="1570" y="230" width="140" height="40" as="geometry" />
        </mxCell>
        <mxCell id="qh5if6X5rxDFb2PUgvWU-9" style="edgeStyle=orthogonalEdgeStyle;rounded=0;orthogonalLoop=1;jettySize=auto;html=1;exitX=0.5;exitY=1;exitDx=0;exitDy=0;" parent="1" source="qh5if6X5rxDFb2PUgvWU-4" target="qh5if6X5rxDFb2PUgvWU-5" edge="1">
          <mxGeometry relative="1" as="geometry" />
        </mxCell>
        <mxCell id="qh5if6X5rxDFb2PUgvWU-4" value="获取战报中的成就数据" style="whiteSpace=wrap;html=1;" parent="1" vertex="1">
          <mxGeometry x="1570" y="300" width="140" height="40" as="geometry" />
        </mxCell>
        <mxCell id="qh5if6X5rxDFb2PUgvWU-5" value="记录成就数据（落库）&lt;br&gt;保存到历史战绩" style="whiteSpace=wrap;html=1;" parent="1" vertex="1">
          <mxGeometry x="1570" y="370" width="140" height="40" as="geometry" />
        </mxCell>
        <mxCell id="qh5if6X5rxDFb2PUgvWU-11" style="edgeStyle=orthogonalEdgeStyle;rounded=0;orthogonalLoop=1;jettySize=auto;html=1;exitX=0.5;exitY=1;exitDx=0;exitDy=0;" parent="1" source="qh5if6X5rxDFb2PUgvWU-12" target="qh5if6X5rxDFb2PUgvWU-14" edge="1">
          <mxGeometry relative="1" as="geometry" />
        </mxCell>
        <mxCell id="qh5if6X5rxDFb2PUgvWU-12" value="收到结算协议" style="whiteSpace=wrap;html=1;" parent="1" vertex="1">
          <mxGeometry x="1830" y="160" width="140" height="40" as="geometry" />
        </mxCell>
        <mxCell id="qh5if6X5rxDFb2PUgvWU-13" style="edgeStyle=orthogonalEdgeStyle;rounded=0;orthogonalLoop=1;jettySize=auto;html=1;exitX=0.5;exitY=1;exitDx=0;exitDy=0;" parent="1" source="qh5if6X5rxDFb2PUgvWU-14" target="qh5if6X5rxDFb2PUgvWU-16" edge="1">
          <mxGeometry relative="1" as="geometry" />
        </mxCell>
        <mxCell id="qh5if6X5rxDFb2PUgvWU-14" value="历史战绩统计" style="whiteSpace=wrap;html=1;" parent="1" vertex="1">
          <mxGeometry x="1830" y="230" width="140" height="40" as="geometry" />
        </mxCell>
        <mxCell id="qh5if6X5rxDFb2PUgvWU-15" style="edgeStyle=orthogonalEdgeStyle;rounded=0;orthogonalLoop=1;jettySize=auto;html=1;exitX=0.5;exitY=1;exitDx=0;exitDy=0;" parent="1" source="qh5if6X5rxDFb2PUgvWU-16" edge="1">
          <mxGeometry relative="1" as="geometry">
            <mxPoint x="1900" y="370" as="targetPoint" />
          </mxGeometry>
        </mxCell>
        <mxCell id="qh5if6X5rxDFb2PUgvWU-16" value="获取战报中的成就数据" style="whiteSpace=wrap;html=1;" parent="1" vertex="1">
          <mxGeometry x="1830" y="300" width="140" height="40" as="geometry" />
        </mxCell>
        <mxCell id="qh5if6X5rxDFb2PUgvWU-34" style="edgeStyle=orthogonalEdgeStyle;rounded=0;orthogonalLoop=1;jettySize=auto;html=1;exitX=0.5;exitY=1;exitDx=0;exitDy=0;entryX=0.5;entryY=0;entryDx=0;entryDy=0;" parent="1" source="qh5if6X5rxDFb2PUgvWU-19" target="qh5if6X5rxDFb2PUgvWU-22" edge="1">
          <mxGeometry relative="1" as="geometry" />
        </mxCell>
        <mxCell id="qh5if6X5rxDFb2PUgvWU-58" style="edgeStyle=orthogonalEdgeStyle;rounded=0;orthogonalLoop=1;jettySize=auto;html=1;exitX=1;exitY=0.5;exitDx=0;exitDy=0;entryX=0;entryY=0.5;entryDx=0;entryDy=0;dashed=1;fontColor=#FF3333;strokeColor=#FF3333;" parent="1" source="qh5if6X5rxDFb2PUgvWU-19" target="qh5if6X5rxDFb2PUgvWU-32" edge="1">
          <mxGeometry relative="1" as="geometry" />
        </mxCell>
        <mxCell id="qh5if6X5rxDFb2PUgvWU-19" value="将成就分为 &lt;font color=&quot;#ff3333&quot;&gt;累计多局成就集合 和 单局成就集合&lt;/font&gt;" style="rounded=0;whiteSpace=wrap;html=1;" parent="1" vertex="1">
          <mxGeometry x="1830" y="370" width="140" height="50" as="geometry" />
        </mxCell>
        <mxCell id="qh5if6X5rxDFb2PUgvWU-22" value="将&lt;font color=&quot;#ff3333&quot;&gt;单局成就数据&lt;/font&gt;（落库）&lt;br&gt;保存到历史战绩" style="whiteSpace=wrap;html=1;" parent="1" vertex="1">
          <mxGeometry x="1830" y="450" width="140" height="40" as="geometry" />
        </mxCell>
        <mxCell id="qh5if6X5rxDFb2PUgvWU-37" style="edgeStyle=orthogonalEdgeStyle;rounded=0;orthogonalLoop=1;jettySize=auto;html=1;exitX=0.5;exitY=1;exitDx=0;exitDy=0;entryX=0.5;entryY=0;entryDx=0;entryDy=0;strokeColor=#FF3333;" parent="1" source="qh5if6X5rxDFb2PUgvWU-24" target="qh5if6X5rxDFb2PUgvWU-25" edge="1">
          <mxGeometry relative="1" as="geometry" />
        </mxCell>
        <mxCell id="qh5if6X5rxDFb2PUgvWU-24" value="获取玩家当前成就进度" style="whiteSpace=wrap;html=1;strokeColor=#FF3333;" parent="1" vertex="1">
          <mxGeometry x="2097.5" y="500" width="135" height="40" as="geometry" />
        </mxCell>
        <mxCell id="qh5if6X5rxDFb2PUgvWU-38" style="edgeStyle=orthogonalEdgeStyle;rounded=0;orthogonalLoop=1;jettySize=auto;html=1;exitX=0.5;exitY=1;exitDx=0;exitDy=0;entryX=0.5;entryY=0;entryDx=0;entryDy=0;strokeColor=#FF3333;" parent="1" source="qh5if6X5rxDFb2PUgvWU-25" target="qh5if6X5rxDFb2PUgvWU-26" edge="1">
          <mxGeometry relative="1" as="geometry" />
        </mxCell>
        <mxCell id="qh5if6X5rxDFb2PUgvWU-40" style="edgeStyle=orthogonalEdgeStyle;rounded=0;orthogonalLoop=1;jettySize=auto;html=1;exitX=0;exitY=0.5;exitDx=0;exitDy=0;entryX=0.5;entryY=0;entryDx=0;entryDy=0;strokeColor=#FF3333;" parent="1" source="qh5if6X5rxDFb2PUgvWU-25" target="qh5if6X5rxDFb2PUgvWU-27" edge="1">
          <mxGeometry relative="1" as="geometry">
            <Array as="points">
              <mxPoint x="2070" y="590" />
              <mxPoint x="2070" y="700" />
              <mxPoint x="2165" y="700" />
            </Array>
          </mxGeometry>
        </mxCell>
        <mxCell id="qh5if6X5rxDFb2PUgvWU-25" value="没有成就进度数据" style="rhombus;whiteSpace=wrap;html=1;strokeColor=#FF3333;" parent="1" vertex="1">
          <mxGeometry x="2100" y="560" width="130" height="60" as="geometry" />
        </mxCell>
        <mxCell id="qh5if6X5rxDFb2PUgvWU-39" style="edgeStyle=orthogonalEdgeStyle;rounded=0;orthogonalLoop=1;jettySize=auto;html=1;exitX=0.5;exitY=1;exitDx=0;exitDy=0;entryX=0.5;entryY=0;entryDx=0;entryDy=0;strokeColor=#FF3333;" parent="1" source="qh5if6X5rxDFb2PUgvWU-26" target="qh5if6X5rxDFb2PUgvWU-27" edge="1">
          <mxGeometry relative="1" as="geometry" />
        </mxCell>
        <mxCell id="qh5if6X5rxDFb2PUgvWU-26" value="创建成就进度Entity" style="whiteSpace=wrap;html=1;strokeColor=#FF3333;" parent="1" vertex="1">
          <mxGeometry x="2105" y="650" width="120" height="35" as="geometry" />
        </mxCell>
        <mxCell id="qh5if6X5rxDFb2PUgvWU-43" style="edgeStyle=orthogonalEdgeStyle;rounded=0;orthogonalLoop=1;jettySize=auto;html=1;exitX=0.5;exitY=1;exitDx=0;exitDy=0;strokeColor=#FF3333;" parent="1" source="qh5if6X5rxDFb2PUgvWU-27" target="qh5if6X5rxDFb2PUgvWU-29" edge="1">
          <mxGeometry relative="1" as="geometry" />
        </mxCell>
        <mxCell id="qh5if6X5rxDFb2PUgvWU-45" style="edgeStyle=orthogonalEdgeStyle;rounded=0;orthogonalLoop=1;jettySize=auto;html=1;exitX=0;exitY=0.5;exitDx=0;exitDy=0;entryX=0;entryY=0.5;entryDx=0;entryDy=0;strokeColor=#FF3333;" parent="1" source="qh5if6X5rxDFb2PUgvWU-27" target="qh5if6X5rxDFb2PUgvWU-35" edge="1">
          <mxGeometry relative="1" as="geometry">
            <Array as="points">
              <mxPoint x="2030" y="740" />
              <mxPoint x="2030" y="460" />
            </Array>
          </mxGeometry>
        </mxCell>
        <mxCell id="qh5if6X5rxDFb2PUgvWU-27" value="成就原本未完成" style="rhombus;whiteSpace=wrap;html=1;strokeColor=#FF3333;" parent="1" vertex="1">
          <mxGeometry x="2100" y="710" width="130" height="60" as="geometry" />
        </mxCell>
        <mxCell id="qh5if6X5rxDFb2PUgvWU-48" style="edgeStyle=orthogonalEdgeStyle;rounded=0;orthogonalLoop=1;jettySize=auto;html=1;exitX=0.5;exitY=1;exitDx=0;exitDy=0;strokeColor=#FF3333;" parent="1" source="qh5if6X5rxDFb2PUgvWU-29" target="qh5if6X5rxDFb2PUgvWU-30" edge="1">
          <mxGeometry relative="1" as="geometry" />
        </mxCell>
        <mxCell id="qh5if6X5rxDFb2PUgvWU-29" value="更新成就进度" style="whiteSpace=wrap;html=1;strokeColor=#FF3333;" parent="1" vertex="1">
          <mxGeometry x="2105" y="800" width="120" height="35" as="geometry" />
        </mxCell>
        <mxCell id="qh5if6X5rxDFb2PUgvWU-49" style="edgeStyle=orthogonalEdgeStyle;rounded=0;orthogonalLoop=1;jettySize=auto;html=1;exitX=0.5;exitY=1;exitDx=0;exitDy=0;strokeColor=#FF3333;" parent="1" source="qh5if6X5rxDFb2PUgvWU-30" target="qh5if6X5rxDFb2PUgvWU-31" edge="1">
          <mxGeometry relative="1" as="geometry" />
        </mxCell>
        <mxCell id="qh5if6X5rxDFb2PUgvWU-30" value="判定成就是否已完成" style="whiteSpace=wrap;html=1;strokeColor=#FF3333;" parent="1" vertex="1">
          <mxGeometry x="2105" y="860" width="120" height="35" as="geometry" />
        </mxCell>
        <mxCell id="qh5if6X5rxDFb2PUgvWU-52" style="edgeStyle=orthogonalEdgeStyle;rounded=0;orthogonalLoop=1;jettySize=auto;html=1;exitX=0;exitY=0.5;exitDx=0;exitDy=0;entryX=0;entryY=0.5;entryDx=0;entryDy=0;strokeColor=#FF3333;" parent="1" source="qh5if6X5rxDFb2PUgvWU-31" target="qh5if6X5rxDFb2PUgvWU-35" edge="1">
          <mxGeometry relative="1" as="geometry">
            <Array as="points">
              <mxPoint x="2030" y="945" />
              <mxPoint x="2030" y="460" />
            </Array>
          </mxGeometry>
        </mxCell>
        <mxCell id="qh5if6X5rxDFb2PUgvWU-54" style="edgeStyle=orthogonalEdgeStyle;rounded=0;orthogonalLoop=1;jettySize=auto;html=1;exitX=0.5;exitY=1;exitDx=0;exitDy=0;strokeColor=#FF3333;" parent="1" source="qh5if6X5rxDFb2PUgvWU-31" target="qh5if6X5rxDFb2PUgvWU-33" edge="1">
          <mxGeometry relative="1" as="geometry" />
        </mxCell>
        <mxCell id="qh5if6X5rxDFb2PUgvWU-31" value="成就当前已完成" style="rhombus;whiteSpace=wrap;html=1;strokeColor=#FF3333;" parent="1" vertex="1">
          <mxGeometry x="2100" y="920" width="130" height="50" as="geometry" />
        </mxCell>
        <mxCell id="qh5if6X5rxDFb2PUgvWU-60" style="edgeStyle=orthogonalEdgeStyle;rounded=0;orthogonalLoop=1;jettySize=auto;html=1;exitX=0.5;exitY=1;exitDx=0;exitDy=0;strokeColor=#FF3333;" parent="1" source="qh5if6X5rxDFb2PUgvWU-32" target="qh5if6X5rxDFb2PUgvWU-35" edge="1">
          <mxGeometry relative="1" as="geometry" />
        </mxCell>
        <mxCell id="qh5if6X5rxDFb2PUgvWU-32" value="异步事件-更新累计多局成就进度（避免卡结算）" style="whiteSpace=wrap;html=1;strokeColor=#FF3333;" parent="1" vertex="1">
          <mxGeometry x="2080" y="370" width="170" height="50" as="geometry" />
        </mxCell>
        <mxCell id="qh5if6X5rxDFb2PUgvWU-57" style="edgeStyle=orthogonalEdgeStyle;rounded=0;orthogonalLoop=1;jettySize=auto;html=1;exitX=0.5;exitY=1;exitDx=0;exitDy=0;entryX=0.5;entryY=0;entryDx=0;entryDy=0;strokeColor=#FF3333;" parent="1" source="qh5if6X5rxDFb2PUgvWU-33" target="qh5if6X5rxDFb2PUgvWU-56" edge="1">
          <mxGeometry relative="1" as="geometry" />
        </mxCell>
        <mxCell id="qh5if6X5rxDFb2PUgvWU-33" value="保存成就进原始map中" style="whiteSpace=wrap;html=1;strokeColor=#FF3333;" parent="1" vertex="1">
          <mxGeometry x="2100" y="1000" width="130" height="30" as="geometry" />
        </mxCell>
        <mxCell id="qh5if6X5rxDFb2PUgvWU-36" style="edgeStyle=orthogonalEdgeStyle;rounded=0;orthogonalLoop=1;jettySize=auto;html=1;exitX=0.5;exitY=1;exitDx=0;exitDy=0;strokeColor=#FF3333;" parent="1" source="qh5if6X5rxDFb2PUgvWU-35" target="qh5if6X5rxDFb2PUgvWU-24" edge="1">
          <mxGeometry relative="1" as="geometry" />
        </mxCell>
        <mxCell id="qh5if6X5rxDFb2PUgvWU-35" value="循环遍历累计多局成就" style="shape=parallelogram;perimeter=parallelogramPerimeter;whiteSpace=wrap;html=1;fixedSize=1;strokeColor=#FF3333;" parent="1" vertex="1">
          <mxGeometry x="2087.5" y="440" width="155" height="40" as="geometry" />
        </mxCell>
        <mxCell id="qh5if6X5rxDFb2PUgvWU-41" value="有进度" style="text;html=1;align=center;verticalAlign=middle;resizable=0;points=[];autosize=1;strokeColor=none;fillColor=none;" parent="1" vertex="1">
          <mxGeometry x="2050" y="560" width="60" height="30" as="geometry" />
        </mxCell>
        <mxCell id="qh5if6X5rxDFb2PUgvWU-42" value="无进度" style="text;html=1;align=center;verticalAlign=middle;resizable=0;points=[];autosize=1;strokeColor=none;fillColor=none;" parent="1" vertex="1">
          <mxGeometry x="2160" y="620" width="60" height="30" as="geometry" />
        </mxCell>
        <mxCell id="qh5if6X5rxDFb2PUgvWU-44" value="未完成" style="text;html=1;align=center;verticalAlign=middle;resizable=0;points=[];autosize=1;strokeColor=none;fillColor=none;" parent="1" vertex="1">
          <mxGeometry x="2165" y="770" width="60" height="30" as="geometry" />
        </mxCell>
        <mxCell id="qh5if6X5rxDFb2PUgvWU-46" value="已完成-继续循环" style="text;html=1;align=center;verticalAlign=middle;resizable=0;points=[];autosize=1;strokeColor=none;fillColor=none;" parent="1" vertex="1">
          <mxGeometry x="2020" y="715" width="110" height="30" as="geometry" />
        </mxCell>
        <mxCell id="qh5if6X5rxDFb2PUgvWU-53" value="未完成-继续循环" style="text;html=1;align=center;verticalAlign=middle;resizable=0;points=[];autosize=1;strokeColor=none;fillColor=none;" parent="1" vertex="1">
          <mxGeometry x="2020" y="920" width="110" height="30" as="geometry" />
        </mxCell>
        <mxCell id="qh5if6X5rxDFb2PUgvWU-55" value="已完成" style="text;html=1;align=center;verticalAlign=middle;resizable=0;points=[];autosize=1;strokeColor=none;fillColor=none;" parent="1" vertex="1">
          <mxGeometry x="2160" y="970" width="60" height="30" as="geometry" />
        </mxCell>
        <mxCell id="qh5if6X5rxDFb2PUgvWU-56" value="通知客户端（批量）" style="whiteSpace=wrap;html=1;strokeColor=#FF3333;" parent="1" vertex="1">
          <mxGeometry x="2100" y="1050" width="130" height="30" as="geometry" />
        </mxCell>
        <mxCell id="qh5if6X5rxDFb2PUgvWU-59" value="同步更新" style="text;html=1;align=center;verticalAlign=middle;resizable=0;points=[];autosize=1;strokeColor=none;fillColor=none;fontColor=#FF3333;" parent="1" vertex="1">
          <mxGeometry x="1990" y="370" width="70" height="30" as="geometry" />
        </mxCell>
        <mxCell id="qh5if6X5rxDFb2PUgvWU-61" value="原始流程" style="text;html=1;align=center;verticalAlign=middle;resizable=0;points=[];autosize=1;strokeColor=none;fillColor=none;" parent="1" vertex="1">
          <mxGeometry x="1600" y="120" width="70" height="30" as="geometry" />
        </mxCell>
        <mxCell id="qh5if6X5rxDFb2PUgvWU-62" value="新的流程" style="text;html=1;align=center;verticalAlign=middle;resizable=0;points=[];autosize=1;strokeColor=none;fillColor=none;" parent="1" vertex="1">
          <mxGeometry x="1865" y="120" width="70" height="30" as="geometry" />
        </mxCell>
        <mxCell id="qh5if6X5rxDFb2PUgvWU-63" value="" style="endArrow=none;dashed=1;html=1;dashPattern=1 3;strokeWidth=2;rounded=0;" parent="1" edge="1">
          <mxGeometry width="50" height="50" relative="1" as="geometry">
            <mxPoint x="1740" y="560" as="sourcePoint" />
            <mxPoint x="1740" y="60" as="targetPoint" />
          </mxGeometry>
        </mxCell>
        <mxCell id="qh5if6X5rxDFb2PUgvWU-64" value="红色内容为本次新增" style="rounded=0;whiteSpace=wrap;html=1;fillColor=#f8cecc;strokeColor=#b85450;" parent="1" vertex="1">
          <mxGeometry x="1785" y="1680" width="150" height="30" as="geometry" />
        </mxCell>
        <mxCell id="qh5if6X5rxDFb2PUgvWU-83" style="edgeStyle=orthogonalEdgeStyle;rounded=0;orthogonalLoop=1;jettySize=auto;html=1;exitX=0.5;exitY=1;exitDx=0;exitDy=0;" parent="1" source="qh5if6X5rxDFb2PUgvWU-66" target="qh5if6X5rxDFb2PUgvWU-69" edge="1">
          <mxGeometry relative="1" as="geometry" />
        </mxCell>
        <mxCell id="qh5if6X5rxDFb2PUgvWU-92" style="edgeStyle=orthogonalEdgeStyle;rounded=0;orthogonalLoop=1;jettySize=auto;html=1;exitX=0;exitY=0.5;exitDx=0;exitDy=0;" parent="1" source="qh5if6X5rxDFb2PUgvWU-66" target="qh5if6X5rxDFb2PUgvWU-67" edge="1">
          <mxGeometry relative="1" as="geometry" />
        </mxCell>
        <mxCell id="qh5if6X5rxDFb2PUgvWU-66" value="单局成就且不累计" style="rhombus;whiteSpace=wrap;html=1;" parent="1" vertex="1">
          <mxGeometry x="1325" y="1285" width="150" height="70" as="geometry" />
        </mxCell>
        <mxCell id="qh5if6X5rxDFb2PUgvWU-67" value="成就状态：无奖励&lt;br&gt;成就进度：累计进度" style="whiteSpace=wrap;html=1;" parent="1" vertex="1">
          <mxGeometry x="1105" y="1300" width="142" height="40" as="geometry" />
        </mxCell>
        <mxCell id="qh5if6X5rxDFb2PUgvWU-84" style="edgeStyle=orthogonalEdgeStyle;rounded=0;orthogonalLoop=1;jettySize=auto;html=1;exitX=0.5;exitY=1;exitDx=0;exitDy=0;entryX=0.5;entryY=0;entryDx=0;entryDy=0;" parent="1" source="qh5if6X5rxDFb2PUgvWU-69" target="qh5if6X5rxDFb2PUgvWU-73" edge="1">
          <mxGeometry relative="1" as="geometry" />
        </mxCell>
        <mxCell id="qh5if6X5rxDFb2PUgvWU-91" style="edgeStyle=orthogonalEdgeStyle;rounded=0;orthogonalLoop=1;jettySize=auto;html=1;exitX=0;exitY=0.5;exitDx=0;exitDy=0;" parent="1" source="qh5if6X5rxDFb2PUgvWU-69" target="qh5if6X5rxDFb2PUgvWU-70" edge="1">
          <mxGeometry relative="1" as="geometry" />
        </mxCell>
        <mxCell id="qh5if6X5rxDFb2PUgvWU-69" value="当前是否已领取" style="rhombus;whiteSpace=wrap;html=1;" parent="1" vertex="1">
          <mxGeometry x="1322.5" y="1380" width="155" height="70" as="geometry" />
        </mxCell>
        <mxCell id="qh5if6X5rxDFb2PUgvWU-70" value="成就状态：已领取&lt;br&gt;成就进度：进度（多局累计为1）" style="whiteSpace=wrap;html=1;" parent="1" vertex="1">
          <mxGeometry x="1065" y="1385" width="182" height="60" as="geometry" />
        </mxCell>
        <mxCell id="qh5if6X5rxDFb2PUgvWU-101" style="edgeStyle=orthogonalEdgeStyle;rounded=0;orthogonalLoop=1;jettySize=auto;html=1;exitX=0.5;exitY=1;exitDx=0;exitDy=0;" parent="1" source="qh5if6X5rxDFb2PUgvWU-71" target="qh5if6X5rxDFb2PUgvWU-66" edge="1">
          <mxGeometry relative="1" as="geometry" />
        </mxCell>
        <mxCell id="qh5if6X5rxDFb2PUgvWU-103" style="edgeStyle=orthogonalEdgeStyle;rounded=0;orthogonalLoop=1;jettySize=auto;html=1;exitX=1;exitY=0.5;exitDx=0;exitDy=0;entryX=0;entryY=0.5;entryDx=0;entryDy=0;strokeColor=#FF3333;" parent="1" source="qh5if6X5rxDFb2PUgvWU-71" target="qh5if6X5rxDFb2PUgvWU-82" edge="1">
          <mxGeometry relative="1" as="geometry" />
        </mxCell>
        <mxCell id="qh5if6X5rxDFb2PUgvWU-71" value="循环成就Map&lt;font color=&quot;#ff3333&quot;&gt;（包含已完成的累计多局任务）&lt;/font&gt;" style="shape=parallelogram;perimeter=parallelogramPerimeter;whiteSpace=wrap;html=1;fixedSize=1;" parent="1" vertex="1">
          <mxGeometry x="1260" y="1205" width="280" height="40" as="geometry" />
        </mxCell>
        <mxCell id="qh5if6X5rxDFb2PUgvWU-72" value="成就状态：原状态&lt;br&gt;成就进度：进度" style="whiteSpace=wrap;html=1;" parent="1" vertex="1">
          <mxGeometry x="1105" y="1590" width="142" height="40" as="geometry" />
        </mxCell>
        <mxCell id="qh5if6X5rxDFb2PUgvWU-85" style="edgeStyle=orthogonalEdgeStyle;rounded=0;orthogonalLoop=1;jettySize=auto;html=1;exitX=0.5;exitY=1;exitDx=0;exitDy=0;" parent="1" source="qh5if6X5rxDFb2PUgvWU-73" target="qh5if6X5rxDFb2PUgvWU-74" edge="1">
          <mxGeometry relative="1" as="geometry" />
        </mxCell>
        <mxCell id="qh5if6X5rxDFb2PUgvWU-88" style="edgeStyle=orthogonalEdgeStyle;rounded=0;orthogonalLoop=1;jettySize=auto;html=1;exitX=1;exitY=0.5;exitDx=0;exitDy=0;strokeColor=#FF3333;" parent="1" source="qh5if6X5rxDFb2PUgvWU-73" target="qh5if6X5rxDFb2PUgvWU-78" edge="1">
          <mxGeometry relative="1" as="geometry" />
        </mxCell>
        <mxCell id="qh5if6X5rxDFb2PUgvWU-73" value="是否是累计任务" style="rhombus;whiteSpace=wrap;html=1;strokeColor=#FF3333;" parent="1" vertex="1">
          <mxGeometry x="1325" y="1475" width="155" height="70" as="geometry" />
        </mxCell>
        <mxCell id="qh5if6X5rxDFb2PUgvWU-86" style="edgeStyle=orthogonalEdgeStyle;rounded=0;orthogonalLoop=1;jettySize=auto;html=1;exitX=0.5;exitY=1;exitDx=0;exitDy=0;entryX=0.5;entryY=0;entryDx=0;entryDy=0;" parent="1" source="qh5if6X5rxDFb2PUgvWU-74" target="qh5if6X5rxDFb2PUgvWU-76" edge="1">
          <mxGeometry relative="1" as="geometry" />
        </mxCell>
        <mxCell id="qh5if6X5rxDFb2PUgvWU-87" style="edgeStyle=orthogonalEdgeStyle;rounded=0;orthogonalLoop=1;jettySize=auto;html=1;exitX=0;exitY=0.5;exitDx=0;exitDy=0;entryX=1;entryY=0.5;entryDx=0;entryDy=0;" parent="1" source="qh5if6X5rxDFb2PUgvWU-74" target="qh5if6X5rxDFb2PUgvWU-72" edge="1">
          <mxGeometry relative="1" as="geometry" />
        </mxCell>
        <mxCell id="qh5if6X5rxDFb2PUgvWU-74" value="无奖励且&lt;br&gt;验证任务是否完成" style="rhombus;whiteSpace=wrap;html=1;" parent="1" vertex="1">
          <mxGeometry x="1317.5" y="1575" width="170" height="70" as="geometry" />
        </mxCell>
        <mxCell id="qh5if6X5rxDFb2PUgvWU-76" value="成就状态：可领取&lt;br&gt;成就进度：进度" style="whiteSpace=wrap;html=1;" parent="1" vertex="1">
          <mxGeometry x="1331.5" y="1675" width="142" height="40" as="geometry" />
        </mxCell>
        <mxCell id="qh5if6X5rxDFb2PUgvWU-77" value="成就状态：进行中&lt;br&gt;成就进度：进度" style="whiteSpace=wrap;html=1;strokeColor=#FF3333;" parent="1" vertex="1">
          <mxGeometry x="1729" y="1295" width="142" height="40" as="geometry" />
        </mxCell>
        <mxCell id="kUKS1Cz0ec9DYAM7edZr-5" style="edgeStyle=orthogonalEdgeStyle;rounded=0;orthogonalLoop=1;jettySize=auto;html=1;exitX=0.5;exitY=1;exitDx=0;exitDy=0;" parent="1" source="qh5if6X5rxDFb2PUgvWU-78" target="kUKS1Cz0ec9DYAM7edZr-1" edge="1">
          <mxGeometry relative="1" as="geometry" />
        </mxCell>
        <mxCell id="qh5if6X5rxDFb2PUgvWU-78" value="成就状态：未完成&lt;br&gt;成就进度：传入" style="whiteSpace=wrap;html=1;strokeColor=#FF3333;" parent="1" vertex="1">
          <mxGeometry x="1587.5" y="1490" width="142" height="40" as="geometry" />
        </mxCell>
        <mxCell id="qh5if6X5rxDFb2PUgvWU-105" style="edgeStyle=orthogonalEdgeStyle;rounded=0;orthogonalLoop=1;jettySize=auto;html=1;exitX=0.5;exitY=1;exitDx=0;exitDy=0;strokeColor=#FF3333;" parent="1" source="qh5if6X5rxDFb2PUgvWU-82" target="qh5if6X5rxDFb2PUgvWU-77" edge="1">
          <mxGeometry relative="1" as="geometry" />
        </mxCell>
        <mxCell id="qh5if6X5rxDFb2PUgvWU-82" value="累计成就未完成状态的" style="shape=parallelogram;perimeter=parallelogramPerimeter;whiteSpace=wrap;html=1;fixedSize=1;strokeColor=#FF3333;" parent="1" vertex="1">
          <mxGeometry x="1685" y="1205" width="230" height="40" as="geometry" />
        </mxCell>
        <mxCell id="qh5if6X5rxDFb2PUgvWU-89" value="是" style="text;html=1;align=center;verticalAlign=middle;resizable=0;points=[];autosize=1;strokeColor=none;fillColor=none;fontColor=#FF3333;" parent="1" vertex="1">
          <mxGeometry x="1500" y="1475" width="40" height="30" as="geometry" />
        </mxCell>
        <mxCell id="qh5if6X5rxDFb2PUgvWU-90" value="否" style="text;html=1;align=center;verticalAlign=middle;resizable=0;points=[];autosize=1;strokeColor=none;fillColor=none;" parent="1" vertex="1">
          <mxGeometry x="1365" y="1545" width="40" height="30" as="geometry" />
        </mxCell>
        <mxCell id="qh5if6X5rxDFb2PUgvWU-93" value="是" style="text;html=1;align=center;verticalAlign=middle;resizable=0;points=[];autosize=1;strokeColor=none;fillColor=none;" parent="1" vertex="1">
          <mxGeometry x="1275" y="1295" width="40" height="30" as="geometry" />
        </mxCell>
        <mxCell id="qh5if6X5rxDFb2PUgvWU-95" value="否" style="text;html=1;align=center;verticalAlign=middle;resizable=0;points=[];autosize=1;strokeColor=none;fillColor=none;" parent="1" vertex="1">
          <mxGeometry x="1405" y="1350" width="40" height="30" as="geometry" />
        </mxCell>
        <mxCell id="qh5if6X5rxDFb2PUgvWU-96" value="是" style="text;html=1;align=center;verticalAlign=middle;resizable=0;points=[];autosize=1;strokeColor=none;fillColor=none;" parent="1" vertex="1">
          <mxGeometry x="1275" y="1385" width="40" height="30" as="geometry" />
        </mxCell>
        <mxCell id="qh5if6X5rxDFb2PUgvWU-97" value="否" style="text;html=1;align=center;verticalAlign=middle;resizable=0;points=[];autosize=1;strokeColor=none;fillColor=none;" parent="1" vertex="1">
          <mxGeometry x="1405" y="1445" width="40" height="30" as="geometry" />
        </mxCell>
        <mxCell id="qh5if6X5rxDFb2PUgvWU-98" value="否" style="text;html=1;align=center;verticalAlign=middle;resizable=0;points=[];autosize=1;strokeColor=none;fillColor=none;" parent="1" vertex="1">
          <mxGeometry x="1275" y="1585" width="40" height="30" as="geometry" />
        </mxCell>
        <mxCell id="qh5if6X5rxDFb2PUgvWU-99" value="否" style="text;html=1;align=center;verticalAlign=middle;resizable=0;points=[];autosize=1;strokeColor=none;fillColor=none;" parent="1" vertex="1">
          <mxGeometry x="1405" y="1643" width="40" height="30" as="geometry" />
        </mxCell>
        <mxCell id="qh5if6X5rxDFb2PUgvWU-100" value="多局累计任务" style="text;html=1;align=center;verticalAlign=middle;resizable=0;points=[];autosize=1;strokeColor=none;fillColor=none;" parent="1" vertex="1">
          <mxGeometry x="1608.5" y="1450" width="100" height="30" as="geometry" />
        </mxCell>
        <mxCell id="qh5if6X5rxDFb2PUgvWU-104" value="循环结束后" style="text;html=1;align=center;verticalAlign=middle;resizable=0;points=[];autosize=1;strokeColor=none;fillColor=none;fontColor=#FF3333;" parent="1" vertex="1">
          <mxGeometry x="1575" y="1195" width="80" height="30" as="geometry" />
        </mxCell>
        <mxCell id="qh5if6X5rxDFb2PUgvWU-107" value="获取成就数据 流程图" style="text;html=1;align=center;verticalAlign=middle;resizable=0;points=[];autosize=1;strokeColor=none;fillColor=none;" parent="1" vertex="1">
          <mxGeometry x="1058" y="1160" width="130" height="30" as="geometry" />
        </mxCell>
        <mxCell id="qh5if6X5rxDFb2PUgvWU-109" value="红色内容为本次新增" style="rounded=0;whiteSpace=wrap;html=1;fillColor=#f8cecc;strokeColor=#b85450;" parent="1" vertex="1">
          <mxGeometry x="1785" y="930" width="150" height="30" as="geometry" />
        </mxCell>
        <mxCell id="qh5if6X5rxDFb2PUgvWU-113" style="edgeStyle=orthogonalEdgeStyle;rounded=0;orthogonalLoop=1;jettySize=auto;html=1;exitX=0.5;exitY=1;exitDx=0;exitDy=0;entryX=0.5;entryY=0;entryDx=0;entryDy=0;strokeColor=#FF3333;" parent="1" source="qh5if6X5rxDFb2PUgvWU-110" target="qh5if6X5rxDFb2PUgvWU-16" edge="1">
          <mxGeometry relative="1" as="geometry">
            <Array as="points">
              <mxPoint x="2075" y="290" />
              <mxPoint x="1900" y="290" />
            </Array>
          </mxGeometry>
        </mxCell>
        <mxCell id="qh5if6X5rxDFb2PUgvWU-110" value="结算处理成就" style="whiteSpace=wrap;html=1;strokeColor=#FF3333;" parent="1" vertex="1">
          <mxGeometry x="2005" y="230" width="140" height="40" as="geometry" />
        </mxCell>
        <mxCell id="qh5if6X5rxDFb2PUgvWU-112" style="edgeStyle=orthogonalEdgeStyle;rounded=0;orthogonalLoop=1;jettySize=auto;html=1;exitX=0.5;exitY=1;exitDx=0;exitDy=0;strokeColor=#FF3333;" parent="1" source="qh5if6X5rxDFb2PUgvWU-111" target="qh5if6X5rxDFb2PUgvWU-110" edge="1">
          <mxGeometry relative="1" as="geometry" />
        </mxCell>
        <mxCell id="qh5if6X5rxDFb2PUgvWU-111" value="收到PVE结算协议" style="whiteSpace=wrap;html=1;strokeColor=#FF3333;" parent="1" vertex="1">
          <mxGeometry x="2005" y="160" width="140" height="40" as="geometry" />
        </mxCell>
        <mxCell id="kUKS1Cz0ec9DYAM7edZr-4" style="edgeStyle=orthogonalEdgeStyle;rounded=0;orthogonalLoop=1;jettySize=auto;html=1;exitX=0.5;exitY=1;exitDx=0;exitDy=0;entryX=0.5;entryY=0;entryDx=0;entryDy=0;" parent="1" source="kUKS1Cz0ec9DYAM7edZr-1" target="kUKS1Cz0ec9DYAM7edZr-3" edge="1">
          <mxGeometry relative="1" as="geometry" />
        </mxCell>
        <mxCell id="kUKS1Cz0ec9DYAM7edZr-7" style="edgeStyle=orthogonalEdgeStyle;rounded=0;orthogonalLoop=1;jettySize=auto;html=1;exitX=0.825;exitY=1;exitDx=0;exitDy=0;entryX=0.5;entryY=0;entryDx=0;entryDy=0;exitPerimeter=0;strokeColor=#FF3333;" parent="1" source="kUKS1Cz0ec9DYAM7edZr-9" edge="1">
          <mxGeometry relative="1" as="geometry">
            <mxPoint x="1601.5" y="1575" as="sourcePoint" />
            <mxPoint x="1400.5" y="1575" as="targetPoint" />
            <Array as="points">
              <mxPoint x="1538" y="1575" />
              <mxPoint x="1538" y="1560" />
              <mxPoint x="1401" y="1560" />
            </Array>
          </mxGeometry>
        </mxCell>
        <mxCell id="kUKS1Cz0ec9DYAM7edZr-1" value="是否已完成" style="rhombus;whiteSpace=wrap;html=1;strokeColor=#FF3333;" parent="1" vertex="1">
          <mxGeometry x="1603.5" y="1550" width="110" height="50" as="geometry" />
        </mxCell>
        <mxCell id="kUKS1Cz0ec9DYAM7edZr-6" style="edgeStyle=orthogonalEdgeStyle;rounded=0;orthogonalLoop=1;jettySize=auto;html=1;exitX=0.5;exitY=1;exitDx=0;exitDy=0;entryX=0.5;entryY=0;entryDx=0;entryDy=0;strokeColor=#FF3333;" parent="1" source="kUKS1Cz0ec9DYAM7edZr-3" target="qh5if6X5rxDFb2PUgvWU-74" edge="1">
          <mxGeometry relative="1" as="geometry">
            <Array as="points">
              <mxPoint x="1659" y="1675" />
              <mxPoint x="1538" y="1675" />
              <mxPoint x="1538" y="1560" />
              <mxPoint x="1403" y="1560" />
            </Array>
          </mxGeometry>
        </mxCell>
        <mxCell id="kUKS1Cz0ec9DYAM7edZr-3" value="成就状态：无奖励&lt;br&gt;成就进度：传入" style="whiteSpace=wrap;html=1;strokeColor=#FF3333;" parent="1" vertex="1">
          <mxGeometry x="1587.5" y="1615" width="142" height="40" as="geometry" />
        </mxCell>
        <mxCell id="kUKS1Cz0ec9DYAM7edZr-8" value="是" style="text;html=1;align=center;verticalAlign=middle;resizable=0;points=[];autosize=1;strokeColor=none;fillColor=none;fontColor=#FF3333;" parent="1" vertex="1">
          <mxGeometry x="1673.5" y="1585" width="40" height="30" as="geometry" />
        </mxCell>
        <mxCell id="kUKS1Cz0ec9DYAM7edZr-9" value="否" style="text;html=1;align=center;verticalAlign=middle;resizable=0;points=[];autosize=1;strokeColor=none;fillColor=none;fontColor=#FF3333;" parent="1" vertex="1">
          <mxGeometry x="1575" y="1545" width="40" height="30" as="geometry" />
        </mxCell>
        <mxCell id="hM0NsMyrD_m5hk-LMQiK-37" style="edgeStyle=orthogonalEdgeStyle;rounded=0;orthogonalLoop=1;jettySize=auto;html=1;exitX=0.5;exitY=1;exitDx=0;exitDy=0;" parent="1" source="hM0NsMyrD_m5hk-LMQiK-2" target="hM0NsMyrD_m5hk-LMQiK-3" edge="1">
          <mxGeometry relative="1" as="geometry" />
        </mxCell>
        <mxCell id="hM0NsMyrD_m5hk-LMQiK-2" value="根据ruleType获取配置表" style="rounded=0;whiteSpace=wrap;html=1;" parent="1" vertex="1">
          <mxGeometry x="290" y="1870" width="160" height="40" as="geometry" />
        </mxCell>
        <mxCell id="hM0NsMyrD_m5hk-LMQiK-38" style="edgeStyle=orthogonalEdgeStyle;rounded=0;orthogonalLoop=1;jettySize=auto;html=1;exitX=0.5;exitY=1;exitDx=0;exitDy=0;entryX=0.5;entryY=0;entryDx=0;entryDy=0;" parent="1" source="hM0NsMyrD_m5hk-LMQiK-3" target="hM0NsMyrD_m5hk-LMQiK-5" edge="1">
          <mxGeometry relative="1" as="geometry" />
        </mxCell>
        <mxCell id="hM0NsMyrD_m5hk-LMQiK-3" value="遍历所有的成就配置" style="rounded=0;whiteSpace=wrap;html=1;" parent="1" vertex="1">
          <mxGeometry x="290" y="1930" width="160" height="40" as="geometry" />
        </mxCell>
        <mxCell id="hM0NsMyrD_m5hk-LMQiK-39" style="edgeStyle=orthogonalEdgeStyle;rounded=0;orthogonalLoop=1;jettySize=auto;html=1;exitX=0.5;exitY=1;exitDx=0;exitDy=0;entryX=0.5;entryY=0;entryDx=0;entryDy=0;" parent="1" source="hM0NsMyrD_m5hk-LMQiK-5" target="hM0NsMyrD_m5hk-LMQiK-7" edge="1">
          <mxGeometry relative="1" as="geometry" />
        </mxCell>
        <mxCell id="hM0NsMyrD_m5hk-LMQiK-51" style="edgeStyle=orthogonalEdgeStyle;rounded=0;orthogonalLoop=1;jettySize=auto;html=1;exitX=0;exitY=0.5;exitDx=0;exitDy=0;entryX=0;entryY=0.5;entryDx=0;entryDy=0;" parent="1" source="hM0NsMyrD_m5hk-LMQiK-5" target="hM0NsMyrD_m5hk-LMQiK-3" edge="1">
          <mxGeometry relative="1" as="geometry">
            <Array as="points">
              <mxPoint x="230" y="2030" />
              <mxPoint x="230" y="1950" />
            </Array>
          </mxGeometry>
        </mxCell>
        <mxCell id="hM0NsMyrD_m5hk-LMQiK-5" value="判定成就是否已完成" style="rhombus;whiteSpace=wrap;html=1;" parent="1" vertex="1">
          <mxGeometry x="295" y="2000" width="150" height="60" as="geometry" />
        </mxCell>
        <mxCell id="hM0NsMyrD_m5hk-LMQiK-40" style="edgeStyle=orthogonalEdgeStyle;rounded=0;orthogonalLoop=1;jettySize=auto;html=1;exitX=0.5;exitY=1;exitDx=0;exitDy=0;entryX=0.5;entryY=0;entryDx=0;entryDy=0;" parent="1" source="hM0NsMyrD_m5hk-LMQiK-7" target="hM0NsMyrD_m5hk-LMQiK-9" edge="1">
          <mxGeometry relative="1" as="geometry" />
        </mxCell>
        <mxCell id="hM0NsMyrD_m5hk-LMQiK-49" style="edgeStyle=orthogonalEdgeStyle;rounded=0;orthogonalLoop=1;jettySize=auto;html=1;exitX=0;exitY=0.5;exitDx=0;exitDy=0;entryX=0;entryY=0.5;entryDx=0;entryDy=0;" parent="1" source="hM0NsMyrD_m5hk-LMQiK-7" target="hM0NsMyrD_m5hk-LMQiK-3" edge="1">
          <mxGeometry relative="1" as="geometry">
            <Array as="points">
              <mxPoint x="200" y="2120" />
              <mxPoint x="200" y="1950" />
            </Array>
          </mxGeometry>
        </mxCell>
        <mxCell id="hM0NsMyrD_m5hk-LMQiK-7" value="成就是否打开" style="rhombus;whiteSpace=wrap;html=1;" parent="1" vertex="1">
          <mxGeometry x="295" y="2090" width="150" height="60" as="geometry" />
        </mxCell>
        <mxCell id="hM0NsMyrD_m5hk-LMQiK-41" style="edgeStyle=orthogonalEdgeStyle;rounded=0;orthogonalLoop=1;jettySize=auto;html=1;exitX=0.5;exitY=1;exitDx=0;exitDy=0;entryX=0.5;entryY=0;entryDx=0;entryDy=0;" parent="1" source="hM0NsMyrD_m5hk-LMQiK-9" target="hM0NsMyrD_m5hk-LMQiK-10" edge="1">
          <mxGeometry relative="1" as="geometry" />
        </mxCell>
        <mxCell id="hM0NsMyrD_m5hk-LMQiK-43" style="edgeStyle=orthogonalEdgeStyle;rounded=0;orthogonalLoop=1;jettySize=auto;html=1;exitX=1;exitY=0.5;exitDx=0;exitDy=0;entryX=0;entryY=0.5;entryDx=0;entryDy=0;" parent="1" source="hM0NsMyrD_m5hk-LMQiK-9" target="hM0NsMyrD_m5hk-LMQiK-13" edge="1">
          <mxGeometry relative="1" as="geometry" />
        </mxCell>
        <mxCell id="hM0NsMyrD_m5hk-LMQiK-9" value="更新任务进度" style="rounded=0;whiteSpace=wrap;html=1;" parent="1" vertex="1">
          <mxGeometry x="290" y="2170" width="160" height="40" as="geometry" />
        </mxCell>
        <mxCell id="hM0NsMyrD_m5hk-LMQiK-42" style="edgeStyle=orthogonalEdgeStyle;rounded=0;orthogonalLoop=1;jettySize=auto;html=1;exitX=0.5;exitY=1;exitDx=0;exitDy=0;" parent="1" source="hM0NsMyrD_m5hk-LMQiK-10" target="hM0NsMyrD_m5hk-LMQiK-11" edge="1">
          <mxGeometry relative="1" as="geometry" />
        </mxCell>
        <mxCell id="hM0NsMyrD_m5hk-LMQiK-10" value="成就是否已完成" style="rhombus;whiteSpace=wrap;html=1;" parent="1" vertex="1">
          <mxGeometry x="295" y="2240" width="150" height="60" as="geometry" />
        </mxCell>
        <mxCell id="hM0NsMyrD_m5hk-LMQiK-11" value="标记成就已完成" style="whiteSpace=wrap;html=1;" parent="1" vertex="1">
          <mxGeometry x="310" y="2340" width="120" height="40" as="geometry" />
        </mxCell>
        <mxCell id="hM0NsMyrD_m5hk-LMQiK-46" style="edgeStyle=orthogonalEdgeStyle;rounded=0;orthogonalLoop=1;jettySize=auto;html=1;exitX=0.5;exitY=1;exitDx=0;exitDy=0;" parent="1" source="hM0NsMyrD_m5hk-LMQiK-13" target="hM0NsMyrD_m5hk-LMQiK-14" edge="1">
          <mxGeometry relative="1" as="geometry" />
        </mxCell>
        <mxCell id="Kp1EMow-JoC00FNon1jZ-1" style="edgeStyle=orthogonalEdgeStyle;rounded=0;orthogonalLoop=1;jettySize=auto;html=1;exitX=1;exitY=0.5;exitDx=0;exitDy=0;entryX=0;entryY=0.5;entryDx=0;entryDy=0;strokeColor=#FF3333;" edge="1" parent="1" source="hM0NsMyrD_m5hk-LMQiK-13" target="Kp1EMow-JoC00FNon1jZ-3">
          <mxGeometry relative="1" as="geometry" />
        </mxCell>
        <mxCell id="hM0NsMyrD_m5hk-LMQiK-13" value="是否局内成就" style="rhombus;whiteSpace=wrap;html=1;strokeColor=#6c8ebf;fillColor=#dae8fc;" parent="1" vertex="1">
          <mxGeometry x="645" y="2160" width="130" height="60" as="geometry" />
        </mxCell>
        <mxCell id="Kp1EMow-JoC00FNon1jZ-11" style="edgeStyle=orthogonalEdgeStyle;rounded=0;orthogonalLoop=1;jettySize=auto;html=1;exitX=0.5;exitY=1;exitDx=0;exitDy=0;" edge="1" parent="1" source="hM0NsMyrD_m5hk-LMQiK-14" target="Kp1EMow-JoC00FNon1jZ-10">
          <mxGeometry relative="1" as="geometry" />
        </mxCell>
        <mxCell id="hM0NsMyrD_m5hk-LMQiK-14" value="处理大厅成就" style="whiteSpace=wrap;html=1;" parent="1" vertex="1">
          <mxGeometry x="645" y="2250" width="130" height="40" as="geometry" />
        </mxCell>
        <mxCell id="hM0NsMyrD_m5hk-LMQiK-17" value="处理累计局内成就" style="whiteSpace=wrap;html=1;" parent="1" vertex="1">
          <mxGeometry x="1101.25" y="2170" width="130" height="40" as="geometry" />
        </mxCell>
        <mxCell id="Kp1EMow-JoC00FNon1jZ-14" style="edgeStyle=orthogonalEdgeStyle;rounded=0;orthogonalLoop=1;jettySize=auto;html=1;exitX=0.5;exitY=1;exitDx=0;exitDy=0;" edge="1" parent="1" source="hM0NsMyrD_m5hk-LMQiK-20" target="hM0NsMyrD_m5hk-LMQiK-21">
          <mxGeometry relative="1" as="geometry" />
        </mxCell>
        <mxCell id="Kp1EMow-JoC00FNon1jZ-20" style="edgeStyle=orthogonalEdgeStyle;rounded=0;orthogonalLoop=1;jettySize=auto;html=1;exitX=0;exitY=0.5;exitDx=0;exitDy=0;entryX=0;entryY=0.5;entryDx=0;entryDy=0;strokeColor=#FF3333;" edge="1" parent="1" source="hM0NsMyrD_m5hk-LMQiK-20" target="hM0NsMyrD_m5hk-LMQiK-22">
          <mxGeometry relative="1" as="geometry">
            <Array as="points">
              <mxPoint x="600" y="2530" />
              <mxPoint x="600" y="2680" />
            </Array>
          </mxGeometry>
        </mxCell>
        <mxCell id="hM0NsMyrD_m5hk-LMQiK-20" value="成就进度大于0" style="rhombus;whiteSpace=wrap;html=1;strokeColor=#FF3333;" parent="1" vertex="1">
          <mxGeometry x="645" y="2504" width="130" height="50" as="geometry" />
        </mxCell>
        <mxCell id="Kp1EMow-JoC00FNon1jZ-15" style="edgeStyle=orthogonalEdgeStyle;rounded=0;orthogonalLoop=1;jettySize=auto;html=1;exitX=0.5;exitY=1;exitDx=0;exitDy=0;entryX=0.5;entryY=0;entryDx=0;entryDy=0;strokeColor=#FF3333;" edge="1" parent="1" source="hM0NsMyrD_m5hk-LMQiK-21" target="hM0NsMyrD_m5hk-LMQiK-22">
          <mxGeometry relative="1" as="geometry" />
        </mxCell>
        <mxCell id="hM0NsMyrD_m5hk-LMQiK-21" value="更新(创建)成就进度实体RoleAchievementProgress" style="whiteSpace=wrap;html=1;strokeColor=#FF3333;" parent="1" vertex="1">
          <mxGeometry x="627.5" y="2580" width="165" height="50" as="geometry" />
        </mxCell>
        <mxCell id="hM0NsMyrD_m5hk-LMQiK-22" value="已完成? 1 : 0;" style="whiteSpace=wrap;html=1;" parent="1" vertex="1">
          <mxGeometry x="641.25" y="2660" width="137.5" height="40" as="geometry" />
        </mxCell>
        <mxCell id="hM0NsMyrD_m5hk-LMQiK-47" value="否" style="text;html=1;align=center;verticalAlign=middle;resizable=0;points=[];autosize=1;strokeColor=none;fillColor=none;" parent="1" vertex="1">
          <mxGeometry x="720" y="2220" width="40" height="30" as="geometry" />
        </mxCell>
        <mxCell id="hM0NsMyrD_m5hk-LMQiK-48" value="是" style="text;html=1;align=center;verticalAlign=middle;resizable=0;points=[];autosize=1;strokeColor=none;fillColor=none;" parent="1" vertex="1">
          <mxGeometry x="370" y="2140" width="40" height="30" as="geometry" />
        </mxCell>
        <mxCell id="hM0NsMyrD_m5hk-LMQiK-50" value="否" style="text;html=1;align=center;verticalAlign=middle;resizable=0;points=[];autosize=1;strokeColor=none;fillColor=none;" parent="1" vertex="1">
          <mxGeometry x="230" y="2100" width="40" height="30" as="geometry" />
        </mxCell>
        <mxCell id="hM0NsMyrD_m5hk-LMQiK-52" value="是" style="text;html=1;align=center;verticalAlign=middle;resizable=0;points=[];autosize=1;strokeColor=none;fillColor=none;" parent="1" vertex="1">
          <mxGeometry x="250" y="1988" width="40" height="30" as="geometry" />
        </mxCell>
        <mxCell id="hM0NsMyrD_m5hk-LMQiK-53" value="否" style="text;html=1;align=center;verticalAlign=middle;resizable=0;points=[];autosize=1;strokeColor=none;fillColor=none;" parent="1" vertex="1">
          <mxGeometry x="370" y="2060" width="40" height="30" as="geometry" />
        </mxCell>
        <mxCell id="Kp1EMow-JoC00FNon1jZ-2" value="是" style="text;html=1;align=center;verticalAlign=middle;resizable=0;points=[];autosize=1;strokeColor=none;fillColor=none;" vertex="1" parent="1">
          <mxGeometry x="790" y="2160" width="40" height="30" as="geometry" />
        </mxCell>
        <mxCell id="Kp1EMow-JoC00FNon1jZ-5" style="edgeStyle=orthogonalEdgeStyle;rounded=0;orthogonalLoop=1;jettySize=auto;html=1;exitX=1;exitY=0.5;exitDx=0;exitDy=0;" edge="1" parent="1" source="Kp1EMow-JoC00FNon1jZ-3" target="hM0NsMyrD_m5hk-LMQiK-17">
          <mxGeometry relative="1" as="geometry" />
        </mxCell>
        <mxCell id="Kp1EMow-JoC00FNon1jZ-8" style="edgeStyle=orthogonalEdgeStyle;rounded=0;orthogonalLoop=1;jettySize=auto;html=1;exitX=0.5;exitY=1;exitDx=0;exitDy=0;entryX=0;entryY=0.5;entryDx=0;entryDy=0;strokeColor=#FF3333;" edge="1" parent="1" source="Kp1EMow-JoC00FNon1jZ-3" target="Kp1EMow-JoC00FNon1jZ-7">
          <mxGeometry relative="1" as="geometry" />
        </mxCell>
        <mxCell id="Kp1EMow-JoC00FNon1jZ-3" value="是否累计任务" style="rhombus;whiteSpace=wrap;html=1;strokeColor=#FF3333;" vertex="1" parent="1">
          <mxGeometry x="883.75" y="2160" width="130" height="60" as="geometry" />
        </mxCell>
        <mxCell id="Kp1EMow-JoC00FNon1jZ-6" value="是" style="text;html=1;align=center;verticalAlign=middle;resizable=0;points=[];autosize=1;strokeColor=none;fillColor=none;" vertex="1" parent="1">
          <mxGeometry x="1035" y="2160" width="40" height="30" as="geometry" />
        </mxCell>
        <mxCell id="Kp1EMow-JoC00FNon1jZ-7" value="打异常-返回0" style="whiteSpace=wrap;html=1;strokeColor=#FF3333;" vertex="1" parent="1">
          <mxGeometry x="1101.25" y="2230" width="130" height="40" as="geometry" />
        </mxCell>
        <mxCell id="Kp1EMow-JoC00FNon1jZ-9" value="否" style="text;html=1;align=center;verticalAlign=middle;resizable=0;points=[];autosize=1;strokeColor=none;fillColor=none;" vertex="1" parent="1">
          <mxGeometry x="960" y="2218" width="40" height="30" as="geometry" />
        </mxCell>
        <mxCell id="Kp1EMow-JoC00FNon1jZ-22" style="edgeStyle=orthogonalEdgeStyle;rounded=0;orthogonalLoop=1;jettySize=auto;html=1;exitX=0.5;exitY=1;exitDx=0;exitDy=0;strokeColor=#FF3333;" edge="1" parent="1" source="Kp1EMow-JoC00FNon1jZ-10" target="Kp1EMow-JoC00FNon1jZ-12">
          <mxGeometry relative="1" as="geometry" />
        </mxCell>
        <mxCell id="Kp1EMow-JoC00FNon1jZ-10" value="计算成就进度&lt;br&gt;&lt;font color=&quot;#ff3333&quot;&gt;（累计成就Check返回进度）&lt;/font&gt;&lt;br&gt;一次性成就返回0 or 1" style="whiteSpace=wrap;html=1;" vertex="1" parent="1">
          <mxGeometry x="625" y="2320" width="170" height="60" as="geometry" />
        </mxCell>
        <mxCell id="Kp1EMow-JoC00FNon1jZ-13" style="edgeStyle=orthogonalEdgeStyle;rounded=0;orthogonalLoop=1;jettySize=auto;html=1;exitX=0.5;exitY=1;exitDx=0;exitDy=0;" edge="1" parent="1" source="Kp1EMow-JoC00FNon1jZ-12" target="hM0NsMyrD_m5hk-LMQiK-20">
          <mxGeometry relative="1" as="geometry" />
        </mxCell>
        <mxCell id="Kp1EMow-JoC00FNon1jZ-16" style="edgeStyle=orthogonalEdgeStyle;rounded=0;orthogonalLoop=1;jettySize=auto;html=1;exitX=0;exitY=0.5;exitDx=0;exitDy=0;entryX=0;entryY=0.5;entryDx=0;entryDy=0;" edge="1" parent="1" source="Kp1EMow-JoC00FNon1jZ-12" target="hM0NsMyrD_m5hk-LMQiK-22">
          <mxGeometry relative="1" as="geometry">
            <Array as="points">
              <mxPoint x="580" y="2440" />
              <mxPoint x="580" y="2680" />
            </Array>
          </mxGeometry>
        </mxCell>
        <mxCell id="Kp1EMow-JoC00FNon1jZ-12" value="是否是累计成就" style="rhombus;whiteSpace=wrap;html=1;strokeColor=#FF3333;" vertex="1" parent="1">
          <mxGeometry x="645" y="2410" width="130" height="60" as="geometry" />
        </mxCell>
        <mxCell id="Kp1EMow-JoC00FNon1jZ-17" value="否" style="text;html=1;align=center;verticalAlign=middle;resizable=0;points=[];autosize=1;strokeColor=none;fillColor=none;" vertex="1" parent="1">
          <mxGeometry x="610" y="2410" width="40" height="30" as="geometry" />
        </mxCell>
        <mxCell id="Kp1EMow-JoC00FNon1jZ-18" value="是" style="text;html=1;align=center;verticalAlign=middle;resizable=0;points=[];autosize=1;strokeColor=none;fillColor=none;" vertex="1" parent="1">
          <mxGeometry x="715" y="2470" width="40" height="30" as="geometry" />
        </mxCell>
        <mxCell id="Kp1EMow-JoC00FNon1jZ-21" value="否" style="text;html=1;align=center;verticalAlign=middle;resizable=0;points=[];autosize=1;strokeColor=none;fillColor=none;" vertex="1" parent="1">
          <mxGeometry x="610" y="2500" width="40" height="30" as="geometry" />
        </mxCell>
        <mxCell id="Kp1EMow-JoC00FNon1jZ-23" value="是" style="text;html=1;align=center;verticalAlign=middle;resizable=0;points=[];autosize=1;strokeColor=none;fillColor=none;" vertex="1" parent="1">
          <mxGeometry x="715" y="2550" width="40" height="30" as="geometry" />
        </mxCell>
        <mxCell id="Kp1EMow-JoC00FNon1jZ-24" value="红色内容为本次新增" style="rounded=0;whiteSpace=wrap;html=1;fillColor=#f8cecc;strokeColor=#b85450;" vertex="1" parent="1">
          <mxGeometry x="1048" y="2510" width="150" height="30" as="geometry" />
        </mxCell>
        <mxCell id="Kp1EMow-JoC00FNon1jZ-25" value="蓝色内容为本次修改" style="rounded=0;whiteSpace=wrap;html=1;fillColor=#dae8fc;strokeColor=#6c8ebf;" vertex="1" parent="1">
          <mxGeometry x="1048" y="2550" width="150" height="30" as="geometry" />
        </mxCell>
        <mxCell id="Kp1EMow-JoC00FNon1jZ-26" value="红色内容为本次新增" style="rounded=0;whiteSpace=wrap;html=1;fillColor=#f8cecc;strokeColor=#b85450;" vertex="1" parent="1">
          <mxGeometry x="2075" y="2630" width="150" height="30" as="geometry" />
        </mxCell>
        <mxCell id="Kp1EMow-JoC00FNon1jZ-27" style="edgeStyle=orthogonalEdgeStyle;rounded=0;orthogonalLoop=1;jettySize=auto;html=1;exitX=0.5;exitY=1;exitDx=0;exitDy=0;" edge="1" parent="1" source="Kp1EMow-JoC00FNon1jZ-29" target="Kp1EMow-JoC00FNon1jZ-33">
          <mxGeometry relative="1" as="geometry" />
        </mxCell>
        <mxCell id="Kp1EMow-JoC00FNon1jZ-28" style="edgeStyle=orthogonalEdgeStyle;rounded=0;orthogonalLoop=1;jettySize=auto;html=1;exitX=0;exitY=0.5;exitDx=0;exitDy=0;" edge="1" parent="1" source="Kp1EMow-JoC00FNon1jZ-29" target="Kp1EMow-JoC00FNon1jZ-30">
          <mxGeometry relative="1" as="geometry" />
        </mxCell>
        <mxCell id="Kp1EMow-JoC00FNon1jZ-29" value="单局成就且不累计" style="rhombus;whiteSpace=wrap;html=1;" vertex="1" parent="1">
          <mxGeometry x="1672" y="2215" width="150" height="70" as="geometry" />
        </mxCell>
        <mxCell id="Kp1EMow-JoC00FNon1jZ-30" value="成就状态：无奖励&lt;br&gt;成就进度：累计进度" style="whiteSpace=wrap;html=1;" vertex="1" parent="1">
          <mxGeometry x="1452" y="2230" width="142" height="40" as="geometry" />
        </mxCell>
        <mxCell id="Kp1EMow-JoC00FNon1jZ-31" style="edgeStyle=orthogonalEdgeStyle;rounded=0;orthogonalLoop=1;jettySize=auto;html=1;exitX=0.5;exitY=1;exitDx=0;exitDy=0;entryX=0.5;entryY=0;entryDx=0;entryDy=0;" edge="1" parent="1" source="Kp1EMow-JoC00FNon1jZ-33" target="Kp1EMow-JoC00FNon1jZ-41">
          <mxGeometry relative="1" as="geometry" />
        </mxCell>
        <mxCell id="Kp1EMow-JoC00FNon1jZ-32" style="edgeStyle=orthogonalEdgeStyle;rounded=0;orthogonalLoop=1;jettySize=auto;html=1;exitX=0;exitY=0.5;exitDx=0;exitDy=0;" edge="1" parent="1" source="Kp1EMow-JoC00FNon1jZ-33" target="Kp1EMow-JoC00FNon1jZ-34">
          <mxGeometry relative="1" as="geometry" />
        </mxCell>
        <mxCell id="Kp1EMow-JoC00FNon1jZ-33" value="当前是否已领取" style="rhombus;whiteSpace=wrap;html=1;" vertex="1" parent="1">
          <mxGeometry x="1669.5" y="2310" width="155" height="70" as="geometry" />
        </mxCell>
        <mxCell id="Kp1EMow-JoC00FNon1jZ-34" value="成就状态：已领取&lt;br&gt;成就进度：进度（多局累计为1）" style="whiteSpace=wrap;html=1;" vertex="1" parent="1">
          <mxGeometry x="1412" y="2315" width="182" height="60" as="geometry" />
        </mxCell>
        <mxCell id="Kp1EMow-JoC00FNon1jZ-35" style="edgeStyle=orthogonalEdgeStyle;rounded=0;orthogonalLoop=1;jettySize=auto;html=1;exitX=0.5;exitY=1;exitDx=0;exitDy=0;" edge="1" parent="1" source="Kp1EMow-JoC00FNon1jZ-37" target="Kp1EMow-JoC00FNon1jZ-29">
          <mxGeometry relative="1" as="geometry" />
        </mxCell>
        <mxCell id="Kp1EMow-JoC00FNon1jZ-36" style="edgeStyle=orthogonalEdgeStyle;rounded=0;orthogonalLoop=1;jettySize=auto;html=1;exitX=1;exitY=0.5;exitDx=0;exitDy=0;entryX=0;entryY=0.5;entryDx=0;entryDy=0;strokeColor=#666666;fillColor=#f5f5f5;" edge="1" parent="1" source="Kp1EMow-JoC00FNon1jZ-37" target="Kp1EMow-JoC00FNon1jZ-50">
          <mxGeometry relative="1" as="geometry" />
        </mxCell>
        <mxCell id="Kp1EMow-JoC00FNon1jZ-37" value="循环成就Map（包含已完成的累计多局任务）" style="shape=parallelogram;perimeter=parallelogramPerimeter;whiteSpace=wrap;html=1;fixedSize=1;" vertex="1" parent="1">
          <mxGeometry x="1607" y="2135" width="280" height="40" as="geometry" />
        </mxCell>
        <mxCell id="Kp1EMow-JoC00FNon1jZ-38" value="成就状态：原状态&lt;br&gt;成就进度：进度" style="whiteSpace=wrap;html=1;" vertex="1" parent="1">
          <mxGeometry x="1452" y="2520" width="142" height="40" as="geometry" />
        </mxCell>
        <mxCell id="Kp1EMow-JoC00FNon1jZ-39" style="edgeStyle=orthogonalEdgeStyle;rounded=0;orthogonalLoop=1;jettySize=auto;html=1;exitX=0.5;exitY=1;exitDx=0;exitDy=0;" edge="1" parent="1" source="Kp1EMow-JoC00FNon1jZ-41" target="Kp1EMow-JoC00FNon1jZ-44">
          <mxGeometry relative="1" as="geometry" />
        </mxCell>
        <mxCell id="Kp1EMow-JoC00FNon1jZ-78" style="edgeStyle=orthogonalEdgeStyle;rounded=0;orthogonalLoop=1;jettySize=auto;html=1;exitX=1;exitY=0.5;exitDx=0;exitDy=0;entryX=0;entryY=0.5;entryDx=0;entryDy=0;" edge="1" parent="1" source="Kp1EMow-JoC00FNon1jZ-41" target="Kp1EMow-JoC00FNon1jZ-72">
          <mxGeometry relative="1" as="geometry" />
        </mxCell>
        <mxCell id="Kp1EMow-JoC00FNon1jZ-41" value="无奖励且是累计任务" style="rhombus;whiteSpace=wrap;html=1;strokeColor=#000000;fontColor=#000000;" vertex="1" parent="1">
          <mxGeometry x="1672" y="2405" width="155" height="70" as="geometry" />
        </mxCell>
        <mxCell id="Kp1EMow-JoC00FNon1jZ-42" style="edgeStyle=orthogonalEdgeStyle;rounded=0;orthogonalLoop=1;jettySize=auto;html=1;exitX=0.5;exitY=1;exitDx=0;exitDy=0;entryX=0.5;entryY=0;entryDx=0;entryDy=0;" edge="1" parent="1" source="Kp1EMow-JoC00FNon1jZ-44" target="Kp1EMow-JoC00FNon1jZ-45">
          <mxGeometry relative="1" as="geometry" />
        </mxCell>
        <mxCell id="Kp1EMow-JoC00FNon1jZ-43" style="edgeStyle=orthogonalEdgeStyle;rounded=0;orthogonalLoop=1;jettySize=auto;html=1;exitX=0;exitY=0.5;exitDx=0;exitDy=0;entryX=1;entryY=0.5;entryDx=0;entryDy=0;" edge="1" parent="1" source="Kp1EMow-JoC00FNon1jZ-44" target="Kp1EMow-JoC00FNon1jZ-38">
          <mxGeometry relative="1" as="geometry" />
        </mxCell>
        <mxCell id="Kp1EMow-JoC00FNon1jZ-44" value="无奖励且&lt;br&gt;验证任务是否完成" style="rhombus;whiteSpace=wrap;html=1;" vertex="1" parent="1">
          <mxGeometry x="1664.5" y="2505" width="170" height="70" as="geometry" />
        </mxCell>
        <mxCell id="Kp1EMow-JoC00FNon1jZ-45" value="成就状态：可领取&lt;br&gt;成就进度：进度" style="whiteSpace=wrap;html=1;" vertex="1" parent="1">
          <mxGeometry x="1678.5" y="2605" width="142" height="40" as="geometry" />
        </mxCell>
        <mxCell id="Kp1EMow-JoC00FNon1jZ-46" value="成就状态：进行中&lt;br&gt;成就进度：进度" style="whiteSpace=wrap;html=1;" vertex="1" parent="1">
          <mxGeometry x="2076" y="2225" width="142" height="40" as="geometry" />
        </mxCell>
        <mxCell id="Kp1EMow-JoC00FNon1jZ-49" style="edgeStyle=orthogonalEdgeStyle;rounded=0;orthogonalLoop=1;jettySize=auto;html=1;exitX=0.5;exitY=1;exitDx=0;exitDy=0;" edge="1" parent="1" source="Kp1EMow-JoC00FNon1jZ-50" target="Kp1EMow-JoC00FNon1jZ-46">
          <mxGeometry relative="1" as="geometry" />
        </mxCell>
        <mxCell id="Kp1EMow-JoC00FNon1jZ-50" value="累计成就未完成状态的" style="shape=parallelogram;perimeter=parallelogramPerimeter;whiteSpace=wrap;html=1;fixedSize=1;" vertex="1" parent="1">
          <mxGeometry x="2032" y="2135" width="230" height="40" as="geometry" />
        </mxCell>
        <mxCell id="Kp1EMow-JoC00FNon1jZ-51" value="是" style="text;html=1;align=center;verticalAlign=middle;resizable=0;points=[];autosize=1;strokeColor=none;fillColor=none;fontColor=default;" vertex="1" parent="1">
          <mxGeometry x="1847" y="2405" width="40" height="30" as="geometry" />
        </mxCell>
        <mxCell id="Kp1EMow-JoC00FNon1jZ-52" value="否" style="text;html=1;align=center;verticalAlign=middle;resizable=0;points=[];autosize=1;strokeColor=none;fillColor=none;" vertex="1" parent="1">
          <mxGeometry x="1712" y="2475" width="40" height="30" as="geometry" />
        </mxCell>
        <mxCell id="Kp1EMow-JoC00FNon1jZ-53" value="是" style="text;html=1;align=center;verticalAlign=middle;resizable=0;points=[];autosize=1;strokeColor=none;fillColor=none;" vertex="1" parent="1">
          <mxGeometry x="1622" y="2225" width="40" height="30" as="geometry" />
        </mxCell>
        <mxCell id="Kp1EMow-JoC00FNon1jZ-54" value="否" style="text;html=1;align=center;verticalAlign=middle;resizable=0;points=[];autosize=1;strokeColor=none;fillColor=none;" vertex="1" parent="1">
          <mxGeometry x="1752" y="2280" width="40" height="30" as="geometry" />
        </mxCell>
        <mxCell id="Kp1EMow-JoC00FNon1jZ-55" value="是" style="text;html=1;align=center;verticalAlign=middle;resizable=0;points=[];autosize=1;strokeColor=none;fillColor=none;" vertex="1" parent="1">
          <mxGeometry x="1622" y="2315" width="40" height="30" as="geometry" />
        </mxCell>
        <mxCell id="Kp1EMow-JoC00FNon1jZ-56" value="否" style="text;html=1;align=center;verticalAlign=middle;resizable=0;points=[];autosize=1;strokeColor=none;fillColor=none;" vertex="1" parent="1">
          <mxGeometry x="1752" y="2375" width="40" height="30" as="geometry" />
        </mxCell>
        <mxCell id="Kp1EMow-JoC00FNon1jZ-57" value="否" style="text;html=1;align=center;verticalAlign=middle;resizable=0;points=[];autosize=1;strokeColor=none;fillColor=none;" vertex="1" parent="1">
          <mxGeometry x="1622" y="2515" width="40" height="30" as="geometry" />
        </mxCell>
        <mxCell id="Kp1EMow-JoC00FNon1jZ-58" value="否" style="text;html=1;align=center;verticalAlign=middle;resizable=0;points=[];autosize=1;strokeColor=none;fillColor=none;" vertex="1" parent="1">
          <mxGeometry x="1752" y="2573" width="40" height="30" as="geometry" />
        </mxCell>
        <mxCell id="Kp1EMow-JoC00FNon1jZ-60" value="循环结束后" style="text;html=1;align=center;verticalAlign=middle;resizable=0;points=[];autosize=1;strokeColor=none;fillColor=none;fontColor=default;" vertex="1" parent="1">
          <mxGeometry x="1922" y="2125" width="80" height="30" as="geometry" />
        </mxCell>
        <mxCell id="Kp1EMow-JoC00FNon1jZ-61" value="获取成就数据 流程图" style="text;html=1;align=center;verticalAlign=middle;resizable=0;points=[];autosize=1;strokeColor=none;fillColor=none;" vertex="1" parent="1">
          <mxGeometry x="1405" y="2090" width="130" height="30" as="geometry" />
        </mxCell>
        <mxCell id="Kp1EMow-JoC00FNon1jZ-79" style="edgeStyle=orthogonalEdgeStyle;rounded=0;orthogonalLoop=1;jettySize=auto;html=1;exitX=0.5;exitY=1;exitDx=0;exitDy=0;strokeColor=#FF3333;" edge="1" parent="1" source="Kp1EMow-JoC00FNon1jZ-72" target="Kp1EMow-JoC00FNon1jZ-74">
          <mxGeometry relative="1" as="geometry" />
        </mxCell>
        <mxCell id="Kp1EMow-JoC00FNon1jZ-80" style="edgeStyle=orthogonalEdgeStyle;rounded=0;orthogonalLoop=1;jettySize=auto;html=1;exitX=1;exitY=0.5;exitDx=0;exitDy=0;strokeColor=#FF3333;" edge="1" parent="1" source="Kp1EMow-JoC00FNon1jZ-72" target="Kp1EMow-JoC00FNon1jZ-73">
          <mxGeometry relative="1" as="geometry" />
        </mxCell>
        <mxCell id="Kp1EMow-JoC00FNon1jZ-72" value="是否完成" style="rhombus;whiteSpace=wrap;html=1;strokeColor=#FF3333;" vertex="1" parent="1">
          <mxGeometry x="1930" y="2413.44" width="137.5" height="53.12" as="geometry" />
        </mxCell>
        <mxCell id="Kp1EMow-JoC00FNon1jZ-73" value="状态改为未完成" style="whiteSpace=wrap;html=1;strokeColor=#FF3333;" vertex="1" parent="1">
          <mxGeometry x="2110" y="2425" width="120" height="30" as="geometry" />
        </mxCell>
        <mxCell id="Kp1EMow-JoC00FNon1jZ-81" style="edgeStyle=orthogonalEdgeStyle;rounded=0;orthogonalLoop=1;jettySize=auto;html=1;exitX=0.5;exitY=1;exitDx=0;exitDy=0;entryX=0.5;entryY=0;entryDx=0;entryDy=0;strokeColor=#FF3333;" edge="1" parent="1" source="Kp1EMow-JoC00FNon1jZ-74" target="Kp1EMow-JoC00FNon1jZ-76">
          <mxGeometry relative="1" as="geometry" />
        </mxCell>
        <mxCell id="Kp1EMow-JoC00FNon1jZ-83" style="edgeStyle=orthogonalEdgeStyle;rounded=0;orthogonalLoop=1;jettySize=auto;html=1;exitX=1;exitY=0.5;exitDx=0;exitDy=0;strokeColor=#FF3333;" edge="1" parent="1" source="Kp1EMow-JoC00FNon1jZ-74" target="Kp1EMow-JoC00FNon1jZ-82">
          <mxGeometry relative="1" as="geometry" />
        </mxCell>
        <mxCell id="Kp1EMow-JoC00FNon1jZ-74" value="是否有奖励" style="rhombus;whiteSpace=wrap;html=1;strokeColor=#FF3333;" vertex="1" parent="1">
          <mxGeometry x="1933.75" y="2490" width="130" height="50" as="geometry" />
        </mxCell>
        <mxCell id="Kp1EMow-JoC00FNon1jZ-76" value="状态改为未领取" style="whiteSpace=wrap;html=1;strokeColor=#FF3333;" vertex="1" parent="1">
          <mxGeometry x="1943.75" y="2560" width="110" height="30" as="geometry" />
        </mxCell>
        <mxCell id="Kp1EMow-JoC00FNon1jZ-82" value="状态仍为无奖励" style="whiteSpace=wrap;html=1;strokeColor=#FF3333;" vertex="1" parent="1">
          <mxGeometry x="2110" y="2500" width="120" height="30" as="geometry" />
        </mxCell>
        <mxCell id="Kp1EMow-JoC00FNon1jZ-84" value="否" style="text;html=1;align=center;verticalAlign=middle;resizable=0;points=[];autosize=1;strokeColor=none;fillColor=none;" vertex="1" parent="1">
          <mxGeometry x="2063.75" y="2413.44" width="40" height="30" as="geometry" />
        </mxCell>
        <mxCell id="Kp1EMow-JoC00FNon1jZ-85" value="是" style="text;html=1;align=center;verticalAlign=middle;resizable=0;points=[];autosize=1;strokeColor=none;fillColor=none;" vertex="1" parent="1">
          <mxGeometry x="1995" y="2464" width="40" height="30" as="geometry" />
        </mxCell>
        <mxCell id="Kp1EMow-JoC00FNon1jZ-86" value="否" style="text;html=1;align=center;verticalAlign=middle;resizable=0;points=[];autosize=1;strokeColor=none;fillColor=none;" vertex="1" parent="1">
          <mxGeometry x="2063.75" y="2485" width="40" height="30" as="geometry" />
        </mxCell>
        <mxCell id="Kp1EMow-JoC00FNon1jZ-87" value="是" style="text;html=1;align=center;verticalAlign=middle;resizable=0;points=[];autosize=1;strokeColor=none;fillColor=none;" vertex="1" parent="1">
          <mxGeometry x="1994" y="2533" width="40" height="30" as="geometry" />
        </mxCell>
      </root>
    </mxGraphModel>
  </diagram>
</mxfile>
